<?xml version="1.0" encoding="UTF-8" standalone="no"?>
<svg
   xmlns:dc="http://purl.org/dc/elements/1.1/"
   xmlns:cc="http://creativecommons.org/ns#"
   xmlns:rdf="http://www.w3.org/1999/02/22-rdf-syntax-ns#"
   xmlns:svg="http://www.w3.org/2000/svg"
   xmlns="http://www.w3.org/2000/svg"
   viewBox="0 0 299.39999 239.10001"
   height="239.10001"
   width="299.39999"
   xml:space="preserve"
   version="1.1"
   id="svg2"><metadata
     id="metadata8"><rdf:RDF><cc:Work
         rdf:about=""><dc:format>image/svg+xml</dc:format><dc:type
           rdf:resource="http://purl.org/dc/dcmitype/StillImage" /></cc:Work></rdf:RDF></metadata><defs
     id="defs6"><clipPath
       id="clipPath336"
       clipPathUnits="userSpaceOnUse"><path
         id="path338"
         d="m 34.172597,30.309095 196.707403,0 0,152.330905 -196.707403,0 0,-152.330905 z" /></clipPath><clipPath
       id="clipPath346"
       clipPathUnits="userSpaceOnUse"><path
         id="path348"
         d="m 34.172597,30.309095 196.707403,0 0,152.330905 -196.707403,0 0,-152.330905 z" /></clipPath></defs><g
     transform="matrix(1.25,0,0,-1.25,0,239.1)"
     id="g10"><path
       id="path12"
       style="fill:#ffffff;fill-opacity:1;fill-rule:nonzero;stroke:none"
       d="m 0,0 239.52,0 0,191.28 L 0,191.28 0,0 Z" /><path
       id="path14"
       style="fill:#ffffff;fill-opacity:1;fill-rule:nonzero;stroke:none"
       d="m 34.172597,30.309095 196.707403,0 0,152.330905 -196.707403,0 0,-152.330905 z" /><path
       id="path16"
       style="fill:#000000;fill-opacity:1;fill-rule:nonzero;stroke:#000000;stroke-width:0.80000001;stroke-linecap:butt;stroke-linejoin:round;stroke-miterlimit:10;stroke-dasharray:none;stroke-opacity:1"
       d="m 43.113843,30.309095 0,3.5" /><path
       id="path18"
       style="fill:#000000;fill-opacity:1;fill-rule:nonzero;stroke:#000000;stroke-width:0.80000001;stroke-linecap:butt;stroke-linejoin:round;stroke-miterlimit:10;stroke-dasharray:none;stroke-opacity:1"
       d="m 43.113843,182.64 0,-3.5" /><text
       id="text20"
       style="font-variant:normal;font-weight:normal;font-size:7.97011185px;font-family:CMR8;-inkscape-font-specification:CMR8;writing-mode:lr-tb;fill:#000000;fill-opacity:1;fill-rule:nonzero;stroke:none"
       transform="matrix(1,0,0,-1,37.703498,21.274293)"><tspan
         id="tspan22"
         y="0"
         x="0">0</tspan></text>
<text
       id="text24"
       style="font-style:italic;font-variant:normal;font-weight:normal;font-size:7.97011185px;font-family:CMMI8;-inkscape-font-specification:CMMI8;writing-mode:lr-tb;fill:#000000;fill-opacity:1;fill-rule:nonzero;stroke:none"
       transform="matrix(1,0,0,-1,41.937681,21.274293)"><tspan
         id="tspan26"
         y="0"
         x="0">.</tspan></text>
<text
       id="text28"
       style="font-variant:normal;font-weight:normal;font-size:7.97011185px;font-family:CMR8;-inkscape-font-specification:CMR8;writing-mode:lr-tb;fill:#000000;fill-opacity:1;fill-rule:nonzero;stroke:none"
       transform="matrix(1,0,0,-1,44.290005,21.274293)"><tspan
         id="tspan30"
         y="0"
         x="0">0</tspan></text>
<path
       id="path32"
       style="fill:#000000;fill-opacity:1;fill-rule:nonzero;stroke:#000000;stroke-width:0.80000001;stroke-linecap:butt;stroke-linejoin:round;stroke-miterlimit:10;stroke-dasharray:none;stroke-opacity:1"
       d="m 78.878825,30.309095 0,3.5" /><path
       id="path34"
       style="fill:#000000;fill-opacity:1;fill-rule:nonzero;stroke:#000000;stroke-width:0.80000001;stroke-linecap:butt;stroke-linejoin:round;stroke-miterlimit:10;stroke-dasharray:none;stroke-opacity:1"
       d="m 78.878825,182.64 0,-3.5" /><text
       id="text36"
       style="font-variant:normal;font-weight:normal;font-size:7.97011185px;font-family:CMR8;-inkscape-font-specification:CMR8;writing-mode:lr-tb;fill:#000000;fill-opacity:1;fill-rule:nonzero;stroke:none"
       transform="matrix(1,0,0,-1,73.468481,21.274293)"><tspan
         id="tspan38"
         y="0"
         x="0">0</tspan></text>
<text
       id="text40"
       style="font-style:italic;font-variant:normal;font-weight:normal;font-size:7.97011185px;font-family:CMMI8;-inkscape-font-specification:CMMI8;writing-mode:lr-tb;fill:#000000;fill-opacity:1;fill-rule:nonzero;stroke:none"
       transform="matrix(1,0,0,-1,77.702663,21.274293)"><tspan
         id="tspan42"
         y="0"
         x="0">.</tspan></text>
<text
       id="text44"
       style="font-variant:normal;font-weight:normal;font-size:7.97011185px;font-family:CMR8;-inkscape-font-specification:CMR8;writing-mode:lr-tb;fill:#000000;fill-opacity:1;fill-rule:nonzero;stroke:none"
       transform="matrix(1,0,0,-1,80.054987,21.274293)"><tspan
         id="tspan46"
         y="0"
         x="0">2</tspan></text>
<path
       id="path48"
       style="fill:#000000;fill-opacity:1;fill-rule:nonzero;stroke:#000000;stroke-width:0.80000001;stroke-linecap:butt;stroke-linejoin:round;stroke-miterlimit:10;stroke-dasharray:none;stroke-opacity:1"
       d="m 114.64381,30.309095 0,3.5" /><path
       id="path50"
       style="fill:#000000;fill-opacity:1;fill-rule:nonzero;stroke:#000000;stroke-width:0.80000001;stroke-linecap:butt;stroke-linejoin:round;stroke-miterlimit:10;stroke-dasharray:none;stroke-opacity:1"
       d="m 114.64381,182.64 0,-3.5" /><text
       id="text52"
       style="font-variant:normal;font-weight:normal;font-size:7.97011185px;font-family:CMR8;-inkscape-font-specification:CMR8;writing-mode:lr-tb;fill:#000000;fill-opacity:1;fill-rule:nonzero;stroke:none"
       transform="matrix(1,0,0,-1,109.23346,21.274293)"><tspan
         id="tspan54"
         y="0"
         x="0">0</tspan></text>
<text
       id="text56"
       style="font-style:italic;font-variant:normal;font-weight:normal;font-size:7.97011185px;font-family:CMMI8;-inkscape-font-specification:CMMI8;writing-mode:lr-tb;fill:#000000;fill-opacity:1;fill-rule:nonzero;stroke:none"
       transform="matrix(1,0,0,-1,113.46765,21.274293)"><tspan
         id="tspan58"
         y="0"
         x="0">.</tspan></text>
<text
       id="text60"
       style="font-variant:normal;font-weight:normal;font-size:7.97011185px;font-family:CMR8;-inkscape-font-specification:CMR8;writing-mode:lr-tb;fill:#000000;fill-opacity:1;fill-rule:nonzero;stroke:none"
       transform="matrix(1,0,0,-1,115.81997,21.274293)"><tspan
         id="tspan62"
         y="0"
         x="0">4</tspan></text>
<path
       id="path64"
       style="fill:#000000;fill-opacity:1;fill-rule:nonzero;stroke:#000000;stroke-width:0.80000001;stroke-linecap:butt;stroke-linejoin:round;stroke-miterlimit:10;stroke-dasharray:none;stroke-opacity:1"
       d="m 150.40879,30.309095 0,3.5" /><path
       id="path66"
       style="fill:#000000;fill-opacity:1;fill-rule:nonzero;stroke:#000000;stroke-width:0.80000001;stroke-linecap:butt;stroke-linejoin:round;stroke-miterlimit:10;stroke-dasharray:none;stroke-opacity:1"
       d="m 150.40879,182.64 0,-3.5" /><text
       id="text68"
       style="font-variant:normal;font-weight:normal;font-size:7.97011185px;font-family:CMR8;-inkscape-font-specification:CMR8;writing-mode:lr-tb;fill:#000000;fill-opacity:1;fill-rule:nonzero;stroke:none"
       transform="matrix(1,0,0,-1,144.99845,21.274293)"><tspan
         id="tspan70"
         y="0"
         x="0">0</tspan></text>
<text
       id="text72"
       style="font-style:italic;font-variant:normal;font-weight:normal;font-size:7.97011185px;font-family:CMMI8;-inkscape-font-specification:CMMI8;writing-mode:lr-tb;fill:#000000;fill-opacity:1;fill-rule:nonzero;stroke:none"
       transform="matrix(1,0,0,-1,149.23263,21.274293)"><tspan
         id="tspan74"
         y="0"
         x="0">.</tspan></text>
<text
       id="text76"
       style="font-variant:normal;font-weight:normal;font-size:7.97011185px;font-family:CMR8;-inkscape-font-specification:CMR8;writing-mode:lr-tb;fill:#000000;fill-opacity:1;fill-rule:nonzero;stroke:none"
       transform="matrix(1,0,0,-1,151.58495,21.274293)"><tspan
         id="tspan78"
         y="0"
         x="0">6</tspan></text>
<path
       id="path80"
       style="fill:#000000;fill-opacity:1;fill-rule:nonzero;stroke:#000000;stroke-width:0.80000001;stroke-linecap:butt;stroke-linejoin:round;stroke-miterlimit:10;stroke-dasharray:none;stroke-opacity:1"
       d="m 186.17377,30.309095 0,3.5" /><path
       id="path82"
       style="fill:#000000;fill-opacity:1;fill-rule:nonzero;stroke:#000000;stroke-width:0.80000001;stroke-linecap:butt;stroke-linejoin:round;stroke-miterlimit:10;stroke-dasharray:none;stroke-opacity:1"
       d="m 186.17377,182.64 0,-3.5" /><text
       id="text84"
       style="font-variant:normal;font-weight:normal;font-size:7.97011185px;font-family:CMR8;-inkscape-font-specification:CMR8;writing-mode:lr-tb;fill:#000000;fill-opacity:1;fill-rule:nonzero;stroke:none"
       transform="matrix(1,0,0,-1,180.76343,21.274293)"><tspan
         id="tspan86"
         y="0"
         x="0">0</tspan></text>
<text
       id="text88"
       style="font-style:italic;font-variant:normal;font-weight:normal;font-size:7.97011185px;font-family:CMMI8;-inkscape-font-specification:CMMI8;writing-mode:lr-tb;fill:#000000;fill-opacity:1;fill-rule:nonzero;stroke:none"
       transform="matrix(1,0,0,-1,184.99761,21.274293)"><tspan
         id="tspan90"
         y="0"
         x="0">.</tspan></text>
<text
       id="text92"
       style="font-variant:normal;font-weight:normal;font-size:7.97011185px;font-family:CMR8;-inkscape-font-specification:CMR8;writing-mode:lr-tb;fill:#000000;fill-opacity:1;fill-rule:nonzero;stroke:none"
       transform="matrix(1,0,0,-1,187.34993,21.274293)"><tspan
         id="tspan94"
         y="0"
         x="0">8</tspan></text>
<path
       id="path96"
       style="fill:#000000;fill-opacity:1;fill-rule:nonzero;stroke:#000000;stroke-width:0.80000001;stroke-linecap:butt;stroke-linejoin:round;stroke-miterlimit:10;stroke-dasharray:none;stroke-opacity:1"
       d="m 221.93875,30.309095 0,3.5" /><path
       id="path98"
       style="fill:#000000;fill-opacity:1;fill-rule:nonzero;stroke:#000000;stroke-width:0.80000001;stroke-linecap:butt;stroke-linejoin:round;stroke-miterlimit:10;stroke-dasharray:none;stroke-opacity:1"
       d="m 221.93875,182.64 0,-3.5" /><text
       id="text100"
       style="font-variant:normal;font-weight:normal;font-size:7.97011185px;font-family:CMR8;-inkscape-font-specification:CMR8;writing-mode:lr-tb;fill:#000000;fill-opacity:1;fill-rule:nonzero;stroke:none"
       transform="matrix(1,0,0,-1,216.52841,21.274293)"><tspan
         id="tspan102"
         y="0"
         x="0">1</tspan></text>
<text
       id="text104"
       style="font-style:italic;font-variant:normal;font-weight:normal;font-size:7.97011185px;font-family:CMMI8;-inkscape-font-specification:CMMI8;writing-mode:lr-tb;fill:#000000;fill-opacity:1;fill-rule:nonzero;stroke:none"
       transform="matrix(1,0,0,-1,220.76259,21.274293)"><tspan
         id="tspan106"
         y="0"
         x="0">.</tspan></text>
<text
       id="text108"
       style="font-variant:normal;font-weight:normal;font-size:7.97011185px;font-family:CMR8;-inkscape-font-specification:CMR8;writing-mode:lr-tb;fill:#000000;fill-opacity:1;fill-rule:nonzero;stroke:none"
       transform="matrix(1,0,0,-1,223.11492,21.274293)"><tspan
         id="tspan110"
         y="0"
         x="0">0</tspan></text>
<path
       id="path112"
       style="fill:#000000;fill-opacity:1;fill-rule:nonzero;stroke:#000000;stroke-width:0.60000002;stroke-linecap:butt;stroke-linejoin:round;stroke-miterlimit:10;stroke-dasharray:none;stroke-opacity:1"
       d="m 34.172597,30.309095 0,2" /><path
       id="path114"
       style="fill:#000000;fill-opacity:1;fill-rule:nonzero;stroke:#000000;stroke-width:0.60000002;stroke-linecap:butt;stroke-linejoin:round;stroke-miterlimit:10;stroke-dasharray:none;stroke-opacity:1"
       d="m 34.172597,182.64 0,-2" /><path
       id="path116"
       style="fill:#000000;fill-opacity:1;fill-rule:nonzero;stroke:#000000;stroke-width:0.60000002;stroke-linecap:butt;stroke-linejoin:round;stroke-miterlimit:10;stroke-dasharray:none;stroke-opacity:1"
       d="m 43.113843,30.309095 0,2" /><path
       id="path118"
       style="fill:#000000;fill-opacity:1;fill-rule:nonzero;stroke:#000000;stroke-width:0.60000002;stroke-linecap:butt;stroke-linejoin:round;stroke-miterlimit:10;stroke-dasharray:none;stroke-opacity:1"
       d="m 43.113843,182.64 0,-2" /><path
       id="path120"
       style="fill:#000000;fill-opacity:1;fill-rule:nonzero;stroke:#000000;stroke-width:0.60000002;stroke-linecap:butt;stroke-linejoin:round;stroke-miterlimit:10;stroke-dasharray:none;stroke-opacity:1"
       d="m 52.055089,30.309095 0,2" /><path
       id="path122"
       style="fill:#000000;fill-opacity:1;fill-rule:nonzero;stroke:#000000;stroke-width:0.60000002;stroke-linecap:butt;stroke-linejoin:round;stroke-miterlimit:10;stroke-dasharray:none;stroke-opacity:1"
       d="m 52.055089,182.64 0,-2" /><path
       id="path124"
       style="fill:#000000;fill-opacity:1;fill-rule:nonzero;stroke:#000000;stroke-width:0.60000002;stroke-linecap:butt;stroke-linejoin:round;stroke-miterlimit:10;stroke-dasharray:none;stroke-opacity:1"
       d="m 60.996334,30.309095 0,2" /><path
       id="path126"
       style="fill:#000000;fill-opacity:1;fill-rule:nonzero;stroke:#000000;stroke-width:0.60000002;stroke-linecap:butt;stroke-linejoin:round;stroke-miterlimit:10;stroke-dasharray:none;stroke-opacity:1"
       d="m 60.996334,182.64 0,-2" /><path
       id="path128"
       style="fill:#000000;fill-opacity:1;fill-rule:nonzero;stroke:#000000;stroke-width:0.60000002;stroke-linecap:butt;stroke-linejoin:round;stroke-miterlimit:10;stroke-dasharray:none;stroke-opacity:1"
       d="m 69.93758,30.309095 0,2" /><path
       id="path130"
       style="fill:#000000;fill-opacity:1;fill-rule:nonzero;stroke:#000000;stroke-width:0.60000002;stroke-linecap:butt;stroke-linejoin:round;stroke-miterlimit:10;stroke-dasharray:none;stroke-opacity:1"
       d="m 69.93758,182.64 0,-2" /><path
       id="path132"
       style="fill:#000000;fill-opacity:1;fill-rule:nonzero;stroke:#000000;stroke-width:0.60000002;stroke-linecap:butt;stroke-linejoin:round;stroke-miterlimit:10;stroke-dasharray:none;stroke-opacity:1"
       d="m 78.878825,30.309095 0,2" /><path
       id="path134"
       style="fill:#000000;fill-opacity:1;fill-rule:nonzero;stroke:#000000;stroke-width:0.60000002;stroke-linecap:butt;stroke-linejoin:round;stroke-miterlimit:10;stroke-dasharray:none;stroke-opacity:1"
       d="m 78.878825,182.64 0,-2" /><path
       id="path136"
       style="fill:#000000;fill-opacity:1;fill-rule:nonzero;stroke:#000000;stroke-width:0.60000002;stroke-linecap:butt;stroke-linejoin:round;stroke-miterlimit:10;stroke-dasharray:none;stroke-opacity:1"
       d="m 87.820071,30.309095 0,2" /><path
       id="path138"
       style="fill:#000000;fill-opacity:1;fill-rule:nonzero;stroke:#000000;stroke-width:0.60000002;stroke-linecap:butt;stroke-linejoin:round;stroke-miterlimit:10;stroke-dasharray:none;stroke-opacity:1"
       d="m 87.820071,182.64 0,-2" /><path
       id="path140"
       style="fill:#000000;fill-opacity:1;fill-rule:nonzero;stroke:#000000;stroke-width:0.60000002;stroke-linecap:butt;stroke-linejoin:round;stroke-miterlimit:10;stroke-dasharray:none;stroke-opacity:1"
       d="m 96.761316,30.309095 0,2" /><path
       id="path142"
       style="fill:#000000;fill-opacity:1;fill-rule:nonzero;stroke:#000000;stroke-width:0.60000002;stroke-linecap:butt;stroke-linejoin:round;stroke-miterlimit:10;stroke-dasharray:none;stroke-opacity:1"
       d="m 96.761316,182.64 0,-2" /><path
       id="path144"
       style="fill:#000000;fill-opacity:1;fill-rule:nonzero;stroke:#000000;stroke-width:0.60000002;stroke-linecap:butt;stroke-linejoin:round;stroke-miterlimit:10;stroke-dasharray:none;stroke-opacity:1"
       d="m 105.70256,30.309095 0,2" /><path
       id="path146"
       style="fill:#000000;fill-opacity:1;fill-rule:nonzero;stroke:#000000;stroke-width:0.60000002;stroke-linecap:butt;stroke-linejoin:round;stroke-miterlimit:10;stroke-dasharray:none;stroke-opacity:1"
       d="m 105.70256,182.64 0,-2" /><path
       id="path148"
       style="fill:#000000;fill-opacity:1;fill-rule:nonzero;stroke:#000000;stroke-width:0.60000002;stroke-linecap:butt;stroke-linejoin:round;stroke-miterlimit:10;stroke-dasharray:none;stroke-opacity:1"
       d="m 114.64381,30.309095 0,2" /><path
       id="path150"
       style="fill:#000000;fill-opacity:1;fill-rule:nonzero;stroke:#000000;stroke-width:0.60000002;stroke-linecap:butt;stroke-linejoin:round;stroke-miterlimit:10;stroke-dasharray:none;stroke-opacity:1"
       d="m 114.64381,182.64 0,-2" /><path
       id="path152"
       style="fill:#000000;fill-opacity:1;fill-rule:nonzero;stroke:#000000;stroke-width:0.60000002;stroke-linecap:butt;stroke-linejoin:round;stroke-miterlimit:10;stroke-dasharray:none;stroke-opacity:1"
       d="m 123.58505,30.309095 0,2" /><path
       id="path154"
       style="fill:#000000;fill-opacity:1;fill-rule:nonzero;stroke:#000000;stroke-width:0.60000002;stroke-linecap:butt;stroke-linejoin:round;stroke-miterlimit:10;stroke-dasharray:none;stroke-opacity:1"
       d="m 123.58505,182.64 0,-2" /><path
       id="path156"
       style="fill:#000000;fill-opacity:1;fill-rule:nonzero;stroke:#000000;stroke-width:0.60000002;stroke-linecap:butt;stroke-linejoin:round;stroke-miterlimit:10;stroke-dasharray:none;stroke-opacity:1"
       d="m 132.5263,30.309095 0,2" /><path
       id="path158"
       style="fill:#000000;fill-opacity:1;fill-rule:nonzero;stroke:#000000;stroke-width:0.60000002;stroke-linecap:butt;stroke-linejoin:round;stroke-miterlimit:10;stroke-dasharray:none;stroke-opacity:1"
       d="m 132.5263,182.64 0,-2" /><path
       id="path160"
       style="fill:#000000;fill-opacity:1;fill-rule:nonzero;stroke:#000000;stroke-width:0.60000002;stroke-linecap:butt;stroke-linejoin:round;stroke-miterlimit:10;stroke-dasharray:none;stroke-opacity:1"
       d="m 141.46754,30.309095 0,2" /><path
       id="path162"
       style="fill:#000000;fill-opacity:1;fill-rule:nonzero;stroke:#000000;stroke-width:0.60000002;stroke-linecap:butt;stroke-linejoin:round;stroke-miterlimit:10;stroke-dasharray:none;stroke-opacity:1"
       d="m 141.46754,182.64 0,-2" /><path
       id="path164"
       style="fill:#000000;fill-opacity:1;fill-rule:nonzero;stroke:#000000;stroke-width:0.60000002;stroke-linecap:butt;stroke-linejoin:round;stroke-miterlimit:10;stroke-dasharray:none;stroke-opacity:1"
       d="m 150.40879,30.309095 0,2" /><path
       id="path166"
       style="fill:#000000;fill-opacity:1;fill-rule:nonzero;stroke:#000000;stroke-width:0.60000002;stroke-linecap:butt;stroke-linejoin:round;stroke-miterlimit:10;stroke-dasharray:none;stroke-opacity:1"
       d="m 150.40879,182.64 0,-2" /><path
       id="path168"
       style="fill:#000000;fill-opacity:1;fill-rule:nonzero;stroke:#000000;stroke-width:0.60000002;stroke-linecap:butt;stroke-linejoin:round;stroke-miterlimit:10;stroke-dasharray:none;stroke-opacity:1"
       d="m 159.35004,30.309095 0,2" /><path
       id="path170"
       style="fill:#000000;fill-opacity:1;fill-rule:nonzero;stroke:#000000;stroke-width:0.60000002;stroke-linecap:butt;stroke-linejoin:round;stroke-miterlimit:10;stroke-dasharray:none;stroke-opacity:1"
       d="m 159.35004,182.64 0,-2" /><path
       id="path172"
       style="fill:#000000;fill-opacity:1;fill-rule:nonzero;stroke:#000000;stroke-width:0.60000002;stroke-linecap:butt;stroke-linejoin:round;stroke-miterlimit:10;stroke-dasharray:none;stroke-opacity:1"
       d="m 168.29128,30.309095 0,2" /><path
       id="path174"
       style="fill:#000000;fill-opacity:1;fill-rule:nonzero;stroke:#000000;stroke-width:0.60000002;stroke-linecap:butt;stroke-linejoin:round;stroke-miterlimit:10;stroke-dasharray:none;stroke-opacity:1"
       d="m 168.29128,182.64 0,-2" /><path
       id="path176"
       style="fill:#000000;fill-opacity:1;fill-rule:nonzero;stroke:#000000;stroke-width:0.60000002;stroke-linecap:butt;stroke-linejoin:round;stroke-miterlimit:10;stroke-dasharray:none;stroke-opacity:1"
       d="m 177.23253,30.309095 0,2" /><path
       id="path178"
       style="fill:#000000;fill-opacity:1;fill-rule:nonzero;stroke:#000000;stroke-width:0.60000002;stroke-linecap:butt;stroke-linejoin:round;stroke-miterlimit:10;stroke-dasharray:none;stroke-opacity:1"
       d="m 177.23253,182.64 0,-2" /><path
       id="path180"
       style="fill:#000000;fill-opacity:1;fill-rule:nonzero;stroke:#000000;stroke-width:0.60000002;stroke-linecap:butt;stroke-linejoin:round;stroke-miterlimit:10;stroke-dasharray:none;stroke-opacity:1"
       d="m 186.17377,30.309095 0,2" /><path
       id="path182"
       style="fill:#000000;fill-opacity:1;fill-rule:nonzero;stroke:#000000;stroke-width:0.60000002;stroke-linecap:butt;stroke-linejoin:round;stroke-miterlimit:10;stroke-dasharray:none;stroke-opacity:1"
       d="m 186.17377,182.64 0,-2" /><path
       id="path184"
       style="fill:#000000;fill-opacity:1;fill-rule:nonzero;stroke:#000000;stroke-width:0.60000002;stroke-linecap:butt;stroke-linejoin:round;stroke-miterlimit:10;stroke-dasharray:none;stroke-opacity:1"
       d="m 195.11502,30.309095 0,2" /><path
       id="path186"
       style="fill:#000000;fill-opacity:1;fill-rule:nonzero;stroke:#000000;stroke-width:0.60000002;stroke-linecap:butt;stroke-linejoin:round;stroke-miterlimit:10;stroke-dasharray:none;stroke-opacity:1"
       d="m 195.11502,182.64 0,-2" /><path
       id="path188"
       style="fill:#000000;fill-opacity:1;fill-rule:nonzero;stroke:#000000;stroke-width:0.60000002;stroke-linecap:butt;stroke-linejoin:round;stroke-miterlimit:10;stroke-dasharray:none;stroke-opacity:1"
       d="m 204.05626,30.309095 0,2" /><path
       id="path190"
       style="fill:#000000;fill-opacity:1;fill-rule:nonzero;stroke:#000000;stroke-width:0.60000002;stroke-linecap:butt;stroke-linejoin:round;stroke-miterlimit:10;stroke-dasharray:none;stroke-opacity:1"
       d="m 204.05626,182.64 0,-2" /><path
       id="path192"
       style="fill:#000000;fill-opacity:1;fill-rule:nonzero;stroke:#000000;stroke-width:0.60000002;stroke-linecap:butt;stroke-linejoin:round;stroke-miterlimit:10;stroke-dasharray:none;stroke-opacity:1"
       d="m 212.99751,30.309095 0,2" /><path
       id="path194"
       style="fill:#000000;fill-opacity:1;fill-rule:nonzero;stroke:#000000;stroke-width:0.60000002;stroke-linecap:butt;stroke-linejoin:round;stroke-miterlimit:10;stroke-dasharray:none;stroke-opacity:1"
       d="m 212.99751,182.64 0,-2" /><path
       id="path196"
       style="fill:#000000;fill-opacity:1;fill-rule:nonzero;stroke:#000000;stroke-width:0.60000002;stroke-linecap:butt;stroke-linejoin:round;stroke-miterlimit:10;stroke-dasharray:none;stroke-opacity:1"
       d="m 221.93875,30.309095 0,2" /><path
       id="path198"
       style="fill:#000000;fill-opacity:1;fill-rule:nonzero;stroke:#000000;stroke-width:0.60000002;stroke-linecap:butt;stroke-linejoin:round;stroke-miterlimit:10;stroke-dasharray:none;stroke-opacity:1"
       d="m 221.93875,182.64 0,-2" /><path
       id="path200"
       style="fill:#000000;fill-opacity:1;fill-rule:nonzero;stroke:#000000;stroke-width:0.60000002;stroke-linecap:butt;stroke-linejoin:round;stroke-miterlimit:10;stroke-dasharray:none;stroke-opacity:1"
       d="m 230.88,30.309095 0,2" /><path
       id="path202"
       style="fill:#000000;fill-opacity:1;fill-rule:nonzero;stroke:#000000;stroke-width:0.60000002;stroke-linecap:butt;stroke-linejoin:round;stroke-miterlimit:10;stroke-dasharray:none;stroke-opacity:1"
       d="m 230.88,182.64 0,-2" /><text
       id="text204"
       style="font-style:italic;font-variant:normal;font-weight:normal;font-size:7.97011185px;font-family:CMMI8;-inkscape-font-specification:CMMI8;writing-mode:lr-tb;fill:#000000;fill-opacity:1;fill-rule:nonzero;stroke:none"
       transform="matrix(1,0,0,-1,130.14285,10.189746)"><tspan
         id="tspan206"
         y="0"
         x="0">x</tspan></text>
<path
       id="path208"
       style="fill:#000000;fill-opacity:1;fill-rule:nonzero;stroke:#000000;stroke-width:0.80000001;stroke-linecap:butt;stroke-linejoin:round;stroke-miterlimit:10;stroke-dasharray:none;stroke-opacity:1"
       d="m 34.172597,47.321448 3.5,0" /><path
       id="path210"
       style="fill:#000000;fill-opacity:1;fill-rule:nonzero;stroke:#000000;stroke-width:0.80000001;stroke-linecap:butt;stroke-linejoin:round;stroke-miterlimit:10;stroke-dasharray:none;stroke-opacity:1"
       d="m 230.88,47.321448 -3.5,0" /><text
       id="text212"
       style="font-variant:normal;font-weight:normal;font-size:7.97011185px;font-family:CMR8;-inkscape-font-specification:CMR8;writing-mode:lr-tb;fill:#000000;fill-opacity:1;fill-rule:nonzero;stroke:none"
       transform="matrix(1,0,0,-1,26.438415,44.554047)"><tspan
         id="tspan214"
         y="0"
         x="0">0</tspan></text>
<path
       id="path216"
       style="fill:#000000;fill-opacity:1;fill-rule:nonzero;stroke:#000000;stroke-width:0.80000001;stroke-linecap:butt;stroke-linejoin:round;stroke-miterlimit:10;stroke-dasharray:none;stroke-opacity:1"
       d="m 34.172597,85.914982 3.5,0" /><path
       id="path218"
       style="fill:#000000;fill-opacity:1;fill-rule:nonzero;stroke:#000000;stroke-width:0.80000001;stroke-linecap:butt;stroke-linejoin:round;stroke-miterlimit:10;stroke-dasharray:none;stroke-opacity:1"
       d="m 230.88,85.914982 -3.5,0" /><text
       id="text220"
       style="font-variant:normal;font-weight:normal;font-size:7.97011185px;font-family:CMR8;-inkscape-font-specification:CMR8;writing-mode:lr-tb;fill:#000000;fill-opacity:1;fill-rule:nonzero;stroke:none"
       transform="matrix(1,0,0,-1,22.204232,83.147581)"><tspan
         id="tspan222"
         y="0"
         x="0 4.2321296">20</tspan></text>
<path
       id="path224"
       style="fill:#000000;fill-opacity:1;fill-rule:nonzero;stroke:#000000;stroke-width:0.80000001;stroke-linecap:butt;stroke-linejoin:round;stroke-miterlimit:10;stroke-dasharray:none;stroke-opacity:1"
       d="m 34.172597,124.50852 3.5,0" /><path
       id="path226"
       style="fill:#000000;fill-opacity:1;fill-rule:nonzero;stroke:#000000;stroke-width:0.80000001;stroke-linecap:butt;stroke-linejoin:round;stroke-miterlimit:10;stroke-dasharray:none;stroke-opacity:1"
       d="m 230.88,124.50852 -3.5,0" /><text
       id="text228"
       style="font-variant:normal;font-weight:normal;font-size:7.97011185px;font-family:CMR8;-inkscape-font-specification:CMR8;writing-mode:lr-tb;fill:#000000;fill-opacity:1;fill-rule:nonzero;stroke:none"
       transform="matrix(1,0,0,-1,22.204232,121.74111)"><tspan
         id="tspan230"
         y="0"
         x="0 4.2321296">40</tspan></text>
<path
       id="path232"
       style="fill:#000000;fill-opacity:1;fill-rule:nonzero;stroke:#000000;stroke-width:0.80000001;stroke-linecap:butt;stroke-linejoin:round;stroke-miterlimit:10;stroke-dasharray:none;stroke-opacity:1"
       d="m 34.172597,163.10205 3.5,0" /><path
       id="path234"
       style="fill:#000000;fill-opacity:1;fill-rule:nonzero;stroke:#000000;stroke-width:0.80000001;stroke-linecap:butt;stroke-linejoin:round;stroke-miterlimit:10;stroke-dasharray:none;stroke-opacity:1"
       d="m 230.88,163.10205 -3.5,0" /><text
       id="text236"
       style="font-variant:normal;font-weight:normal;font-size:7.97011185px;font-family:CMR8;-inkscape-font-specification:CMR8;writing-mode:lr-tb;fill:#000000;fill-opacity:1;fill-rule:nonzero;stroke:none"
       transform="matrix(1,0,0,-1,22.204232,160.33465)"><tspan
         id="tspan238"
         y="0"
         x="0 4.2321296">60</tspan></text>
<path
       id="path240"
       style="fill:#000000;fill-opacity:1;fill-rule:nonzero;stroke:#000000;stroke-width:0.60000002;stroke-linecap:butt;stroke-linejoin:round;stroke-miterlimit:10;stroke-dasharray:none;stroke-opacity:1"
       d="m 34.172597,37.673065 2,0" /><path
       id="path242"
       style="fill:#000000;fill-opacity:1;fill-rule:nonzero;stroke:#000000;stroke-width:0.60000002;stroke-linecap:butt;stroke-linejoin:round;stroke-miterlimit:10;stroke-dasharray:none;stroke-opacity:1"
       d="m 230.88,37.673065 -2,0" /><path
       id="path244"
       style="fill:#000000;fill-opacity:1;fill-rule:nonzero;stroke:#000000;stroke-width:0.60000002;stroke-linecap:butt;stroke-linejoin:round;stroke-miterlimit:10;stroke-dasharray:none;stroke-opacity:1"
       d="m 34.172597,47.321448 2,0" /><path
       id="path246"
       style="fill:#000000;fill-opacity:1;fill-rule:nonzero;stroke:#000000;stroke-width:0.60000002;stroke-linecap:butt;stroke-linejoin:round;stroke-miterlimit:10;stroke-dasharray:none;stroke-opacity:1"
       d="m 230.88,47.321448 -2,0" /><path
       id="path248"
       style="fill:#000000;fill-opacity:1;fill-rule:nonzero;stroke:#000000;stroke-width:0.60000002;stroke-linecap:butt;stroke-linejoin:round;stroke-miterlimit:10;stroke-dasharray:none;stroke-opacity:1"
       d="m 34.172597,56.969832 2,0" /><path
       id="path250"
       style="fill:#000000;fill-opacity:1;fill-rule:nonzero;stroke:#000000;stroke-width:0.60000002;stroke-linecap:butt;stroke-linejoin:round;stroke-miterlimit:10;stroke-dasharray:none;stroke-opacity:1"
       d="m 230.88,56.969832 -2,0" /><path
       id="path252"
       style="fill:#000000;fill-opacity:1;fill-rule:nonzero;stroke:#000000;stroke-width:0.60000002;stroke-linecap:butt;stroke-linejoin:round;stroke-miterlimit:10;stroke-dasharray:none;stroke-opacity:1"
       d="m 34.172597,66.618215 2,0" /><path
       id="path254"
       style="fill:#000000;fill-opacity:1;fill-rule:nonzero;stroke:#000000;stroke-width:0.60000002;stroke-linecap:butt;stroke-linejoin:round;stroke-miterlimit:10;stroke-dasharray:none;stroke-opacity:1"
       d="m 230.88,66.618215 -2,0" /><path
       id="path256"
       style="fill:#000000;fill-opacity:1;fill-rule:nonzero;stroke:#000000;stroke-width:0.60000002;stroke-linecap:butt;stroke-linejoin:round;stroke-miterlimit:10;stroke-dasharray:none;stroke-opacity:1"
       d="m 34.172597,76.266598 2,0" /><path
       id="path258"
       style="fill:#000000;fill-opacity:1;fill-rule:nonzero;stroke:#000000;stroke-width:0.60000002;stroke-linecap:butt;stroke-linejoin:round;stroke-miterlimit:10;stroke-dasharray:none;stroke-opacity:1"
       d="m 230.88,76.266598 -2,0" /><path
       id="path260"
       style="fill:#000000;fill-opacity:1;fill-rule:nonzero;stroke:#000000;stroke-width:0.60000002;stroke-linecap:butt;stroke-linejoin:round;stroke-miterlimit:10;stroke-dasharray:none;stroke-opacity:1"
       d="m 34.172597,85.914982 2,0" /><path
       id="path262"
       style="fill:#000000;fill-opacity:1;fill-rule:nonzero;stroke:#000000;stroke-width:0.60000002;stroke-linecap:butt;stroke-linejoin:round;stroke-miterlimit:10;stroke-dasharray:none;stroke-opacity:1"
       d="m 230.88,85.914982 -2,0" /><path
       id="path264"
       style="fill:#000000;fill-opacity:1;fill-rule:nonzero;stroke:#000000;stroke-width:0.60000002;stroke-linecap:butt;stroke-linejoin:round;stroke-miterlimit:10;stroke-dasharray:none;stroke-opacity:1"
       d="m 34.172597,95.563365 2,0" /><path
       id="path266"
       style="fill:#000000;fill-opacity:1;fill-rule:nonzero;stroke:#000000;stroke-width:0.60000002;stroke-linecap:butt;stroke-linejoin:round;stroke-miterlimit:10;stroke-dasharray:none;stroke-opacity:1"
       d="m 230.88,95.563365 -2,0" /><path
       id="path268"
       style="fill:#000000;fill-opacity:1;fill-rule:nonzero;stroke:#000000;stroke-width:0.60000002;stroke-linecap:butt;stroke-linejoin:round;stroke-miterlimit:10;stroke-dasharray:none;stroke-opacity:1"
       d="m 34.172597,105.21175 2,0" /><path
       id="path270"
       style="fill:#000000;fill-opacity:1;fill-rule:nonzero;stroke:#000000;stroke-width:0.60000002;stroke-linecap:butt;stroke-linejoin:round;stroke-miterlimit:10;stroke-dasharray:none;stroke-opacity:1"
       d="m 230.88,105.21175 -2,0" /><path
       id="path272"
       style="fill:#000000;fill-opacity:1;fill-rule:nonzero;stroke:#000000;stroke-width:0.60000002;stroke-linecap:butt;stroke-linejoin:round;stroke-miterlimit:10;stroke-dasharray:none;stroke-opacity:1"
       d="m 34.172597,114.86013 2,0" /><path
       id="path274"
       style="fill:#000000;fill-opacity:1;fill-rule:nonzero;stroke:#000000;stroke-width:0.60000002;stroke-linecap:butt;stroke-linejoin:round;stroke-miterlimit:10;stroke-dasharray:none;stroke-opacity:1"
       d="m 230.88,114.86013 -2,0" /><path
       id="path276"
       style="fill:#000000;fill-opacity:1;fill-rule:nonzero;stroke:#000000;stroke-width:0.60000002;stroke-linecap:butt;stroke-linejoin:round;stroke-miterlimit:10;stroke-dasharray:none;stroke-opacity:1"
       d="m 34.172597,124.50852 2,0" /><path
       id="path278"
       style="fill:#000000;fill-opacity:1;fill-rule:nonzero;stroke:#000000;stroke-width:0.60000002;stroke-linecap:butt;stroke-linejoin:round;stroke-miterlimit:10;stroke-dasharray:none;stroke-opacity:1"
       d="m 230.88,124.50852 -2,0" /><path
       id="path280"
       style="fill:#000000;fill-opacity:1;fill-rule:nonzero;stroke:#000000;stroke-width:0.60000002;stroke-linecap:butt;stroke-linejoin:round;stroke-miterlimit:10;stroke-dasharray:none;stroke-opacity:1"
       d="m 34.172597,134.1569 2,0" /><path
       id="path282"
       style="fill:#000000;fill-opacity:1;fill-rule:nonzero;stroke:#000000;stroke-width:0.60000002;stroke-linecap:butt;stroke-linejoin:round;stroke-miterlimit:10;stroke-dasharray:none;stroke-opacity:1"
       d="m 230.88,134.1569 -2,0" /><path
       id="path284"
       style="fill:#000000;fill-opacity:1;fill-rule:nonzero;stroke:#000000;stroke-width:0.60000002;stroke-linecap:butt;stroke-linejoin:round;stroke-miterlimit:10;stroke-dasharray:none;stroke-opacity:1"
       d="m 34.172597,143.80528 2,0" /><path
       id="path286"
       style="fill:#000000;fill-opacity:1;fill-rule:nonzero;stroke:#000000;stroke-width:0.60000002;stroke-linecap:butt;stroke-linejoin:round;stroke-miterlimit:10;stroke-dasharray:none;stroke-opacity:1"
       d="m 230.88,143.80528 -2,0" /><path
       id="path288"
       style="fill:#000000;fill-opacity:1;fill-rule:nonzero;stroke:#000000;stroke-width:0.60000002;stroke-linecap:butt;stroke-linejoin:round;stroke-miterlimit:10;stroke-dasharray:none;stroke-opacity:1"
       d="m 34.172597,153.45366 2,0" /><path
       id="path290"
       style="fill:#000000;fill-opacity:1;fill-rule:nonzero;stroke:#000000;stroke-width:0.60000002;stroke-linecap:butt;stroke-linejoin:round;stroke-miterlimit:10;stroke-dasharray:none;stroke-opacity:1"
       d="m 230.88,153.45366 -2,0" /><path
       id="path292"
       style="fill:#000000;fill-opacity:1;fill-rule:nonzero;stroke:#000000;stroke-width:0.60000002;stroke-linecap:butt;stroke-linejoin:round;stroke-miterlimit:10;stroke-dasharray:none;stroke-opacity:1"
       d="m 34.172597,163.10205 2,0" /><path
       id="path294"
       style="fill:#000000;fill-opacity:1;fill-rule:nonzero;stroke:#000000;stroke-width:0.60000002;stroke-linecap:butt;stroke-linejoin:round;stroke-miterlimit:10;stroke-dasharray:none;stroke-opacity:1"
       d="m 230.88,163.10205 -2,0" /><path
       id="path296"
       style="fill:#000000;fill-opacity:1;fill-rule:nonzero;stroke:#000000;stroke-width:0.60000002;stroke-linecap:butt;stroke-linejoin:round;stroke-miterlimit:10;stroke-dasharray:none;stroke-opacity:1"
       d="m 34.172597,172.75043 2,0" /><path
       id="path298"
       style="fill:#000000;fill-opacity:1;fill-rule:nonzero;stroke:#000000;stroke-width:0.60000002;stroke-linecap:butt;stroke-linejoin:round;stroke-miterlimit:10;stroke-dasharray:none;stroke-opacity:1"
       d="m 230.88,172.75043 -2,0" /><path
       id="path300"
       style="fill:#000000;fill-opacity:1;fill-rule:nonzero;stroke:#000000;stroke-width:0.60000002;stroke-linecap:butt;stroke-linejoin:round;stroke-miterlimit:10;stroke-dasharray:none;stroke-opacity:1"
       d="m 34.172597,182.39882 2,0" /><path
       id="path302"
       style="fill:#000000;fill-opacity:1;fill-rule:nonzero;stroke:#000000;stroke-width:0.60000002;stroke-linecap:butt;stroke-linejoin:round;stroke-miterlimit:10;stroke-dasharray:none;stroke-opacity:1"
       d="m 230.88,182.39882 -2,0" /><text
       id="text304"
       style="font-style:italic;font-variant:normal;font-weight:normal;font-size:7.97011185px;font-family:CMMI8;-inkscape-font-specification:CMMI8;writing-mode:lr-tb;fill:#000000;fill-opacity:1;fill-rule:nonzero;stroke:none"
       transform="matrix(0,1,1,0,15.414644,82.077055)"><tspan
         id="tspan306"
         y="0"
         x="0">v</tspan></text>
<text
       id="text308"
       style="font-variant:normal;font-weight:normal;font-size:5.97758389px;font-family:CMR6;-inkscape-font-specification:CMR6;writing-mode:lr-tb;fill:#000000;fill-opacity:1;fill-rule:nonzero;stroke:none"
       transform="matrix(0,1,1,0,16.410908,86.200538)"><tspan
         id="tspan310"
         y="0"
         x="0 3.2637608">eq</tspan></text>
<text
       id="text312"
       style="font-variant:normal;font-weight:normal;font-size:7.97011185px;font-family:CMEX10;-inkscape-font-specification:CMEX10;writing-mode:lr-tb;fill:#000000;fill-opacity:1;fill-rule:nonzero;stroke:none"
       transform="matrix(0,1,1,0,8.9587966,98.044992)"><tspan
         id="tspan314"
         y="0"
         x="0"></tspan></text>
<text
       id="text316"
       style="font-variant:normal;font-weight:normal;font-size:7.97011185px;font-family:CMR8;-inkscape-font-specification:CMR8;writing-mode:lr-tb;fill:#000000;fill-opacity:1;fill-rule:nonzero;stroke:none"
       transform="matrix(0,1,1,0,15.414644,101.36588)"><tspan
         id="tspan318"
         y="0"
         x="0 4.4632626 12.928206">kms</tspan></text>
<text
       id="text320"
       style="font-style:italic;font-variant:normal;font-weight:normal;font-size:5.97758389px;font-family:CMSY6;-inkscape-font-specification:CMSY6;writing-mode:lr-tb;fill:#000000;fill-opacity:1;fill-rule:nonzero;stroke:none"
       transform="matrix(0,1,1,0,12.601858,117.64397)"><tspan
         id="tspan322"
         y="0"
         x="0">−</tspan></text>
<text
       id="text324"
       style="font-variant:normal;font-weight:normal;font-size:5.97758389px;font-family:CMR6;-inkscape-font-specification:CMR6;writing-mode:lr-tb;fill:#000000;fill-opacity:1;fill-rule:nonzero;stroke:none"
       transform="matrix(0,1,1,0,12.601858,123.40011)"><tspan
         id="tspan326"
         y="0"
         x="0">1</tspan></text>
<text
       id="text328"
       style="font-variant:normal;font-weight:normal;font-size:7.97011185px;font-family:CMEX10;-inkscape-font-specification:CMEX10;writing-mode:lr-tb;fill:#000000;fill-opacity:1;fill-rule:nonzero;stroke:none"
       transform="matrix(0,1,1,0,8.9587966,127.55115)"><tspan
         id="tspan330"
         y="0"
         x="0"></tspan></text>
<g
       id="g332"><g
         clip-path="url(#clipPath336)"
         id="g334"><path
           id="path340"
           style="fill:none;stroke:#1f77b4;stroke-width:0.75;stroke-linecap:square;stroke-linejoin:round;stroke-miterlimit:10;stroke-dasharray:none;stroke-opacity:1"
           d="m 43.219677,47.321432 0.02751,-4e-6 0.03466,-5e-6 0.04367,-7e-6 0.05502,-8e-6 0.06933,-10e-6 0.08735,-1.4e-5 0.110072,-1.6e-5 0.106427,-1.6e-5 0.07946,-1.2e-5 0.120682,-1.8e-5 0.171216,-2.6e-5 0.231167,-3.5e-5 0.302625,-4.6e-5 0.389445,-5.9e-5 0.426317,-6.4e-5 0.347424,-5.3e-5 0.276774,-4.1e-5 0.218086,-3.3e-5 0.192446,-2.9e-5 0.173311,-2.6e-5 0.158385,-2.4e-5 0.225148,-3.4e-5 0.202871,-3.1e-5 0.209971,-3.2e-5 0.09812,-1.4e-5 0.09419,-1.5e-5 0.178043,-2.7e-5 0.16623,-2.5e-5 0.177049,-2.6e-5 0.166198,-2.6e-5 0.156927,-2.3e-5 0.07538,-1.2e-5 0.07351,-1.1e-5 0.156069,-2.3e-5 0.148599,-2.3e-5 0.142005,-2.1e-5 0.136135,-2.1e-5 0.141255,-2.1e-5 0.135742,-2e-5 0.130772,-2e-5 0.06367,-1e-5 0.06259,-9e-6 0.130101,-2e-5 0.12584,-1.9e-5 0.121939,-1.8e-5 0.118349,-1.8e-5 0.121329,-1.9e-5 0.117922,-1.7e-5 0.114767,-1.8e-5 0.05627,-8e-6 0.05556,-9e-6 0.114204,-1.7e-5 0.111412,-1.7e-5 0.108801,-1.6e-5 0.05347,-8e-6 0.05288,-8e-6 0.05444,-8e-6 0.05384,-8e-6 0.105942,-1.6e-5 0.103745,-1.6e-5 0.05109,-8e-6 0.05058,-7e-6 0.103253,-1.6e-5 0.10127,-1.5e-5 0.09939,-1.5e-5 0.09761,-1.5e-5 0.04968,-8e-6 0.04924,-7e-6 0.09722,-1.5e-5 0.0956,-1.4e-5 0.09405,-1.4e-5 0.09516,-1.5e-5 0.09367,-1.4e-5 0.0463,-7e-6 0.04596,-7e-6 0.04562,-7e-6 0.04529,-6e-6 0.09184,-1.4e-5 0.09054,-1.4e-5 0.08929,-1.3e-5 0.04419,-7e-6 0.0439,-7e-6 0.08889,-1.3e-5 0.08774,-1.3e-5 0.08663,-1.3e-5 0.06471,-1e-5 0.06412,-10e-6 0.08573,-1.3e-5 0.06364,-9e-6 0.06309,-1e-5 0.08329,-1.3e-5 0.08387,-1.2e-5 0.08295,-1.3e-5 0.04114,-6e-6 0.04093,-6e-6 0.08122,-1.2e-5 0.08171,-1.3e-5 0.08089,-1.2e-5 0.04015,-6e-6 0.03995,-6e-6 0.07933,-1.2e-5 0.07975,-1.2e-5 0.07901,-1.2e-5 0.05878,-9e-6 0.05839,-9e-6 0.05852,-9e-6 0.05814,-8e-6 0.07728,-1.2e-5 0.07663,-1.2e-5 0.076,-1.1e-5 0.03823,-6e-6 0.03807,-6e-6 0.0757,-1.1e-5 0.05639,-8e-6 0.05606,-9e-6 0.05615,-8e-6 0.05583,-9e-6 0.07424,-1.1e-5 0.0737,-1.1e-5 0.03665,-6e-6 0.03652,-5e-6 0.07339,-1.1e-5 0.07288,-1.1e-5 0.05434,-9e-6 0.05407,-8e-6 0.0271,-4e-6 0.02703,-4e-6 0.05386,-8e-6 0.07163,-1.1e-5 0.07118,-1.1e-5 0.03543,-5e-6 0.03532,-5e-6 0.07089,-1.1e-5 0.07047,-1.1e-5 0.07006,-1e-5 0.03488,-5e-6 0.03478,-6e-6 0.03493,-5e-6 0.03484,-5e-6 0.06938,-1.1e-5 0.06901,-1e-5 0.03437,-5e-6 0.03427,-5e-6 0.06873,-1.1e-5 0.03423,-5e-6 0.03414,-5e-6 0.06803,-10e-6 0.06769,-1.1e-5 0.03392,-5e-6 0.03384,-5e-6 0.06743,-10e-6 0.06711,-1e-5 0.06698,-10e-6 0.03337,-5e-6 0.0333,-5e-6 0.06655,-1e-5 0.06626,-10e-6 0.03302,-5e-6 0.03295,-5e-6 0.066,-10e-6 0.06573,-1e-5 0.04912,-8e-6 0.04897,-7e-6 0.04896,-8e-6 0.04882,-7e-6 0.06497,-1e-5 0.06473,-1e-5 0.03228,-5e-6 0.03222,-5e-6 0.06449,-1.1e-5 0.06427,-1.1e-5 0.07209,-1.3e-5 0.03595,-8e-6 0.03588,-8e-6 0.05182,-1.4e-5 0.05169,-1.6e-5 0.05156,-1.9e-5 0.05144,-2.5e-5 0.06329,-3.8e-5 0.03158,-2.2e-5 0.03153,-2.4e-5 0.06294,-5.5e-5 0.0314,-2.8e-5 0.03136,-2.6e-5 0.03139,-2.1e-5 0.03135,-1.4e-5 0.06257,2.1e-5 0.06242,1.36e-4 0.03115,1.23e-4 0.03111,1.72e-4 0.06222,5.28e-4 0.03106,3.09e-4 0.03102,3.17e-4 0.06195,5.1e-4 0.06182,0 0.03476,-3.36e-4 0.03472,-6.18e-4 0.03468,-9.27e-4 0.03465,-0.0013 0.03461,-0.0017 0.03458,-0.0022 0.06908,-0.0063 0.05371,-0.0077 0.02684,-0.0042 0.02683,-0.0044 0.02682,-0.0046 0.02682,-0.0045 0.05364,-0.0066 0.05369,-0.0014 0.05374,0.0084 0.0269,0.0081 0.02693,0.0095 0.05394,0.01662 0.06182,0.0026 0.062,-0.02099 0.03109,-0.02331 0.03117,-0.02599 0.06257,-0.01252 0.06283,0.02744 0.0315,0.01093 0.03157,0.01461 0.03165,0.01635 0.03173,0.01121 0.03182,0.004 0.03186,-0.0038 0.03192,-0.01294 0.032,-0.02278 0.03209,-0.01404 0.03213,0.0018 0.06448,-0.03587 0.06481,0.02964 0.04875,0.02857 0.04892,0.02126 0.04907,0.008 0.115063,-0.04086 0.132592,-0.03765 0.201095,0.07861 0.203694,-0.06754 0.205845,0.04759 0.173029,0.0044 0.253725,-0.04089 0.239105,0.0518 0.106924,-0.03466 0.107537,-0.02744 0.262208,0.06565 0.239337,-0.0557 0.155641,0.0091 0.241305,0.04532 0.244702,-0.05095 0.132467,0.01773 0.133315,0.03095 0.191454,-0.01223 0.115212,-0.02504 0.115751,-0.0052 0.115963,0.01544 0.11653,0.02314 0.116865,0.0081 0.117402,-0.01604 0.117648,-0.02282 0.118182,-0.0037 0.157649,0.02204 0.158365,0.0196 0.07916,0.0011 0.198072,-0.0064 0.275685,-0.0068 0.156722,-0.0057 0.156123,-0.006 0.232626,-0.0017 0.15448,0.0017 0.115132,0.0025 0.11499,0.0038 0.0764,0.0028 0.07634,0.0029 0.114127,0.0044 0.114011,0.0039 0.151082,0.0037 0.22591,0.0014 0.149889,-0.0018 0.223791,-0.006 0.148778,-0.0051 0.221779,-0.0067 0.147133,-0.0028 0.147066,-0.0011 0.109695,3.68e-4 0.10967,0.0014 0.218461,0.0059 0.145055,0.0048 0.144625,0.0045 0.0721,0.0019 0.144218,0.0031 0.215088,0.0016 0.143004,-9.79e-4 0.142621,-0.0026 0.142244,-0.0037 0.141876,-0.0042 0.141515,-0.004 0.141164,-0.0035 0.281311,-0.0021 0.140148,6.84e-4 0.139593,0.0022 0.139738,0.0033 0.104381,0.0028 0.104472,0.0029 0.138508,0.0037 0.138211,0.003 0.138393,0.0019 0.206772,3.56e-4 0.103076,-9.49e-4 0.103194,-0.0016 0.171063,-0.0037 0.102802,-0.0026 0.136304,-0.0035 0.204418,-0.0043 0.203998,-0.0021 0.135333,-1.01e-4 0.135597,8.78e-4 0.134876,0.0021 0.135154,0.0028 0.13444,0.0032 0.13473,0.0033 0.13402,0.0029 0.134323,0.0022 0.133619,0.0014 0.133934,1.46e-4 0.133233,-6.08e-4 0.13356,-0.0017 0.266077,-0.0051 0.132511,-0.003 0.132859,-0.0028 0.13217,-0.0023 0.13253,-0.0015 0.131846,-7.35e-4 0.132215,1.01e-4 0.263458,0.0033 0.131236,0.0024 0.131626,0.0027 0.130951,0.0028 0.13135,0.0026 0.130678,0.0021 0.131087,0.0014 0.261263,4.68e-4 0.130169,-9.6e-4 0.130596,-0.0016 0.129932,-0.0021 0.130366,-0.0024 0.129706,-0.0025 0.130148,-0.0024 0.259439,-0.0031 0.129282,-8.07e-4 0.129742,-5e-5 0.129086,5.71e-4 0.129553,0.0013 0.128899,0.0018 0.129374,0.0021 0.257932,0.0048 0.128552,0.0021 0.129041,0.0017 0.128391,0.0012 0.128888,6.21e-4 0.128238,-2e-5 0.128741,-6.35e-4 0.128093,-0.0012 0.128604,-0.0016 0.127956,-0.002 0.128473,-0.0021 0.127826,-0.0021 0.128349,-0.002 0.127703,-0.0017 0.128233,-0.0012 0.127587,-7.45e-4 0.128123,-1.12e-4 0.127478,3.21e-4 0.128021,9.25e-4 0.127375,0.0013 0.127924,0.0017 0.127279,0.0019 0.127833,0.002 0.254946,0.0039 0.127104,0.0015 0.127669,0.0011 0.127025,6.87e-4 0.127597,1.21e-4 0.126951,-2.37e-4 0.127528,-7.89e-4 0.254355,-0.0026 0.12682,-0.0017 0.127406,-0.0018 0.126761,-0.0018 0.127354,-0.0017 0.126707,-0.0015 0.127305,-0.0013 0.253927,-0.0011 0.253842,7.62e-4 0.126574,7.1e-4 0.127186,0.0011 0.126538,0.0014 0.127154,0.0016 0.253641,0.0034 0.253589,0.003 0.126453,0.0011 0.127083,7.99e-4 0.253507,5.27e-4 0.253475,-8.91e-4 0.1264,-9.47e-4 0.127043,-0.0012 0.253433,-0.0029 0.253421,-0.0029 0.126377,-0.0015 0.127033,-0.0014 0.253417,-0.0017 0.253426,-1.91e-4 0.126381,8.5e-5 0.127051,5.13e-4 0.126388,7.93e-4 0.127062,9.87e-4 0.253482,0.0027 0.253511,0.003 0.126427,0.0013 0.127111,0.0013 0.126444,0.0011 0.127133,8.77e-4 0.253628,0.001 0.253677,-1.21e-4 0.126511,-4.77e-4 0.127211,-7.21e-4 0.126539,-9.31e-4 0.127242,-0.0011 0.253848,-0.0025 0.253913,-0.0025 0.126631,-0.0013 0.127345,-0.0011 0.126666,-9.43e-4 0.127383,-8.14e-4 0.254132,-7.26e-4 0.254212,4.19e-4 0.126781,3.73e-4 0.127508,5.36e-4 0.254383,0.0019 0.254473,0.0024 0.126911,0.0012 0.127648,0.0012 0.126957,0.0012 0.127697,0.0011 0.254759,0.0018 0.25486,0.0011 0.254963,7.3e-5 0.127155,-1.29e-4 0.127908,-4.58e-4 0.255177,-0.0014 0.255288,-0.0019 0.127316,-0.0011 0.128078,-0.0012 0.127372,-0.0012 0.255572,-0.0021 0.128196,-0.0011 0.255748,-0.0015 0.255868,-7.79e-4 0.127603,-2.38e-4 0.128379,-5.8e-5 0.127663,7.1e-5 0.256171,9.76e-4 0.256294,0.0016 0.128567,8.1e-4 0.256483,0.0021 0.256609,0.0022 0.12797,0.001 0.128761,9.67e-4 0.128032,8.69e-4 0.256927,0.0015 0.257056,9.22e-4 0.128956,2.26e-4 0.25725,-4.9e-5 0.25738,-6.38e-4 0.257508,-0.0012 0.128413,-7.8e-4 0.129219,-8.94e-4 0.257767,-0.0019 0.2579,-0.002 0.25802,-0.0019 0.25816,-0.0016 0.25829,-0.0012 0.25842,-7.91e-4 0.25854,-1.56e-4 0.25868,2.63e-4 0.2588,8.43e-4 0.25893,0.0013 0.25907,0.0016 0.25919,0.0018 0.25932,0.0018 0.25945,0.0017 0.25958,0.0015 0.2597,0.0012 0.25984,8.03e-4 0.25996,3.14e-4 0.26009,-1.11e-4 0.26021,-5.93e-4 0.26035,-9.93e-4 0.26047,-0.0013 0.26059,-0.0016 0.26072,-0.0017 0.26084,-0.0017 0.26097,-0.0016 0.2611,-0.0015 0.26121,-0.0012 0.26134,-8.56e-4 0.26146,-4.76e-4 0.26158,-7.7e-5 0.26169,3.21e-4 0.26182,6.9e-4 0.26194,0.001 0.26205,0.0013 0.26217,0.0015 0.26228,0.0016 0.2624,0.0016 0.26251,0.0015 0.26262,0.0014 0.26273,0.0012 0.26284,9.02e-4 0.26294,6.01e-4 0.26305,2.56e-4 0.26316,-5.7e-5 0.26326,-3.99e-4 0.26335,-6.98e-4 0.26345,-9.66e-4 0.26355,-0.0012 0.26365,-0.0013 0.26373,-0.0014 0.26382,-0.0015 0.26391,-0.0015 0.264,-0.0014 0.26407,-0.0012 0.26416,-0.0011 0.26424,-8.4e-4 0.26431,-5.98e-4 0.26438,-2.87e-4 0.26446,-6.6e-5 0.26453,2.42e-4 0.26459,4.91e-4 0.26465,7.26e-4 0.26472,9.3e-4 0.26477,0.0011 0.26482,0.0012 0.26488,0.0013 0.26492,0.0013 0.26496,0.0013 0.265,0.0013 0.26504,0.0012 0.26507,0.001 0.2651,8.8e-4 0.26513,6.92e-4 0.26515,4.85e-4 0.26516,2.73e-4 0.26518,2.3e-5 0.26518,-1.62e-4 0.26519,-3.99e-4 0.26519,-5.93e-4 0.26518,-7.74e-4 0.26517,-9.29e-4 0.26516,-0.0011 0.26513,-0.0012 0.2651,-0.0012 0.26507,-0.0013 0.26504,-0.0013 0.26499,-0.0012 0.26493,-0.0012 0.26488,-0.0011 0.26482,-9.93e-4 0.26475,-8.65e-4 0.26466,-7.2e-4 0.26459,-5.6e-4 0.26449,-3.97e-4 0.2644,-1.97e-4 0.26429,-5.9e-5 0.26418,1.38e-4 0.26406,2.95e-4 0.26392,4.49e-4 0.26379,5.89e-4 0.26365,7.14e-4 0.26349,8.24e-4 0.26333,9.15e-4 0.26316,9.87e-4 0.26298,10e-4 0.26279,0.0011 0.2626,0.0011 0.26239,0.0011 0.26218,0.001 0.26196,9.92e-4 0.26173,9.37e-4 0.26149,8.61e-4 0.26124,7.75e-4 0.26099,6.78e-4 0.26072,5.72e-4 0.26045,4.62e-4 0.26017,3.47e-4 0.25988,2.31e-4 0.25959,1.1e-4 0.25928,-3e-6 0.25897,-1.21e-4 0.25864,-2.34e-4 0.25832,-3.41e-4 0.25799,-4.42e-4 0.25764,-5.38e-4 0.25729,-6.25e-4 0.25694,-7.04e-4 0.25657,-7.75e-4 0.2562,-8.34e-4 0.25582,-8.85e-4 0.25544,-9.24e-4 0.25504,-9.53e-4 0.25464,-9.73e-4 0.25424,-9.8e-4 0.25383,-9.73e-4 0.25341,-9.55e-4 0.25298,-9.35e-4 0.25255,-9.01e-4 0.25211,-8.5e-4 0.25167,-8.02e-4 0.25121,-7.47e-4 0.25076,-6.87e-4 0.25029,-6.2e-4 0.24982,-5.51e-4 0.24935,-4.78e-4 0.24887,-4.04e-4 0.24837,-3.34e-4 0.24789,-2.47e-4 0.24738,-1.87e-4 0.24689,-9.8e-5 0.24637,-2.7e-5 0.24587,4e-5 0.24534,9.9e-5 0.24483,1.47e-4 0.2443,1.86e-4 0.24377,2.29e-4 0.24324,2.75e-4 0.2427,3.26e-4 0.24217,3.76e-4 0.24162,4.23e-4 0.24109,4.69e-4 0.24054,5.12e-4 0.23999,5.48e-4 0.23944,5.77e-4 0.2389,6e-4 0.23834,6.3e-4 0.23779,6.59e-4 0.23724,6.6e-4 0.23668,6.79e-4 0.23613,6.95e-4 0.23557,7.05e-4 0.23501,7.1e-4 0.23447,7.12e-4 0.2339,7.11e-4 0.23335,7.03e-4 0.23279,6.91e-4 0.23224,6.74e-4 0.23168,6.53e-4 0.23113,6.3e-4 0.23058,6.03e-4 0.23003,5.73e-4 0.22947,5.39e-4 0.22893,5.02e-4 0.22837,4.62e-4 0.22783,4.15e-4 0.22728,3.67e-4 0.22673,3.15e-4 0.22619,2.6e-4 0.22565,2.04e-4 0.2251,1.43e-4 0.22457,8e-5 0.22402,1.4e-5 0.22349,-5.2e-5 0.22295,-1.24e-4 0.22242,-1.97e-4 0.22188,-2.71e-4 0.22135,-3.46e-4 0.22083,-4.2e-4 0.22029,-4.95e-4 0.21977,-5.69e-4 0.21924,-6.42e-4 0.21871,-7.15e-4 0.2182,-7.86e-4 0.21767,-8.56e-4 0.21715,-9.24e-4 0.21664,-9.9e-4 0.21612,-0.0011 0.2156,-0.0011 0.2151,-0.0012 0.21458,-0.0012 0.21407,-0.0013 0.21357,-0.0013 0.21306,-0.0014 0.21256,-0.0015 0.21206,-0.0015 0.21155,-0.0016 0.21106,-0.0017 0.21056,-0.0017 0.21008,-0.0018 0.20958,-0.0018 0.20909,-0.0019 0.2086,-0.0019 0.20812,-0.002 0.20764,-0.002 0.20715,-0.002 0.20668,-0.0021 0.2062,-0.0021 0.20573,-0.0021 0.20525,-0.0022 0.20479,-0.0022 0.20431,-0.0022 0.20385,-0.0022 0.20338,-0.0022 0.20292,-0.0022 0.20245,-0.002 0.202,-0.0019 0.20154,-0.0018 0.20109,-0.0017 0.20062,-0.0016 0.20018,-0.0015 0.19972,-0.0014 0.19928,-0.0013 0.19882,-0.0012 0.19837,-0.0011 0.19793,-10e-4 0.19748,-9.23e-4 0.19704,-8.16e-4 0.19659,-7.06e-4 0.19615,-5.9e-4 0.19571,-4.69e-4 0.19527,-3.44e-4 0.19482,-2.08e-4 0.19439,-6e-5 0.19395,8.3e-5 0.19352,2.23e-4 0.19308,3.23e-4 0.19265,3.58e-4 0.19221,4.02e-4 0.19178,4.99e-4 0.19135,6.1e-4 0.19092,6.88e-4 0.19049,7.56e-4 0.19006,8.57e-4 0.18964,9.77e-4 0.18922,0.0011 0.18879,0.0013 0.18836,0.0014 0.18795,0.0015 0.18752,0.0016 0.18711,0.0017 0.18669,0.0018 0.18627,0.0019 0.18586,0.0019 0.18544,0.002 0.18503,0.002 0.18462,0.0021 0.18422,0.0022 0.1838,0.0023 0.1834,0.0023 0.18299,0.0022 0.1826,0.0021 0.18219,0.0021 0.18179,0.0021 0.1814,0.0021 0.181,0.0022 0.18061,0.0022 0.18022,0.0023 0.17983,0.0023 0.17944,0.0023 0.17905,0.0023 0.17867,0.0023 0.17829,0.0023 0.17791,0.0023 0.17754,0.0022 0.17716,0.0022 0.17679,0.0022 0.17641,0.0021 0.17605,0.0021 0.17568,0.0021 0.17532,0.002 0.17496,0.0019 0.1746,0.0019 0.17425,0.0019 0.17388,0.0018 0.17354,0.0015 0.17319,0.0013 0.17284,10e-4 0.1725,7.87e-4 0.17216,5.28e-4 0.17182,2.21e-4 0.17148,-1.9e-5 0.17116,-3.55e-4 0.17082,-6.61e-4 0.17049,-9.88e-4 0.17017,-0.0013 0.16985,-0.0017 0.16953,-0.002 0.16922,-0.0024 0.1689,-0.0027 0.1686,-0.0031 0.16829,-0.0035 0.16799,-0.0039 0.16769,-0.0042 0.1674,-0.0046 0.1671,-0.0049 0.16683,-0.0054 0.16653,-0.0058 0.16627,-0.0063 0.16599,-0.0069 0.16572,-0.0075 0.16546,-0.0082 0.16519,-0.009 0.16495,-0.0099 0.16469,-0.01083 0.16445,-0.0118 0.16421,-0.01307 0.16398,-0.01521 0.16374,-0.02099 0.16352,-0.02315 0.16331,-0.02627 0.16309,-0.03082 0.16288,-0.03406 0.16268,-0.03701 0.16248,-0.04128 0.1623,-0.04556 0.1621,-0.04804 0.16193,-0.05168 0.16176,-0.05623 0.16158,-0.06318 0.16143,-0.06232 0.16127,-0.06119 0.16112,-0.06954 0.16097,-0.08226 0.16084,-0.0886 0.16071,-0.09422 0.16058,-0.08345 0.16047,-0.08457 0.16035,-0.110083 0.16025,-0.09816 0.16015,-0.08341 0.16006,-0.114602 0.15998,-0.122467 0.1599,-0.144931 0.15983,-0.104326 0.15977,-0.113561 0.15972,-0.128021 0.15967,-0.127975 0.15964,-0.135699 0.15961,-0.149569 0.15958,-0.128487 0.15958,-0.144457 0.15957,-0.162107 0.15958,-0.176067 0.15959,-0.128537 0.15962,-0.138057 0.15965,-0.147492 0.15969,-0.18237 0.15974,-0.172041 0.15981,-0.144663 0.15988,-0.207807 0.15996,-0.158392 0.16005,-0.148386 0.16017,-0.198137 0.16027,-0.193074 0.16041,-0.168863 0.16055,-0.185644 0.1607,-0.182124 0.16086,-0.183246 0.16104,-0.187523 0.16124,-0.193132 0.16144,-0.17797 0.16166,-0.202764 0.1619,-0.211248 0.16215,-0.153714 0.16241,-0.19781 0.1627,-0.176483 0.16299,-0.212285 0.16331,-0.147457 0.16364,-0.181802 0.16399,-0.21194 0.16436,-0.182502 0.16474,-0.151173 0.16516,-0.2047 0.16559,-0.27644 0.16603,-0.180313 0.16651,-0.100014 0.16701,-0.146445 0.16753,-0.130193 0.16807,-0.16588 0.16864,-0.128293 0.16924,-0.188523 0.0845,-0.09414 0.0854,-0.05897 0.17052,-0.0069 0.1712,0.09958 0.17192,0.213115 0.0859,0.144426 0.0868,0.154344 0.17346,0.284033 0.17427,0.308036 0.17513,0.171129 0.0875,0.200634 0.0885,0.342499 0.088,0.256743 0.089,0.06526 0.0885,0.553992 0.0895,0.403274 0.17897,0.169691 0.18004,0.884802 0.09,0.442428 0.0911,0.06677 0.0906,0.860276 0.0917,0.746486 0.18357,1.319782 0.18486,0.767007 0.0925,1.10505 0.0937,0.668727 0.18762,1.220065 0.18909,0.965784 0.0947,0.03996 0.0959,1.706087 0.19227,0.819807 0.19398,3.620702 0.0972,0.964948 0.0986,0.170493 0.19766,0.29101 0.19964,2.394543 0.10015,2.523082 0.10157,0.01354 0.20391,5.536443 0.10236,1.135047 0.10387,0.03834 0.10355,2.10042 0.1051,3.309578 0.10482,0.01914 0.10641,4.68356 0.21393,2.772275 0.10755,0.07943 0.10924,2.559841 0.10953,2.680764 0.2214,0.176493 0.11193,0.689026 0.0562,1.915261 0.0566,1.537178 0.11366,0.07803 0.17206,2.896167 0.11597,1.620899 0.11694,0.09073 0.17744,2.374973 0.17955,1.992586 0.0908,0.77763 0.10675,0.44387 0.0767,0.0749 0.0927,0.12146 0.1719,0.83612 0.0788,0.92425 0.0954,1.13082 0.12834,0.98361 0.12974,0.58822 0.0982,0.15671 0.13231,1.02924 0.11707,0.92501 0.1013,0.37907 0.0512,0.15562 0.11978,0.35497 0.13003,1.02677 0.0787,0.61478 0.14144,0.39793 0.16143,1.01532 0.0724,0.65328 0.10529,0.76641 0.0971,0.43107 0.14028,0.45667 0.10429,0.47114 0.11476,0.26266 0.0772,0.28507 0.13694,0.86821 0.0891,0.65248 0.10506,0.46366 0.10635,0.40814 0.0611,0.42618 0.10315,0.74845 0.13004,0.60514 0.14318,0.28537 0.0645,0.23148 0.043,0.29366 0.0869,0.75565 0.13199,0.74918 0.13398,0.30068 0.11338,0.57538 0.0688,0.5108 0.13929,0.88834 0.14202,0.73857 0.0959,0.2451 0.0726,0.18166 0.0736,0.47949 0.0738,0.65105 0.0999,0.532 0.1265,0.29611 0.11572,0.49429 0.1174,0.66855 0.10605,0.55051 0.0537,0.28998 0.13559,0.45931 0.11065,0.14579 0.0557,0.19573 0.0845,0.27261 0.14326,0.35064 0.16106,0.7994 0.10418,0.61832 0.0908,0.55263 0.0614,0.35495 0.0615,0.20427 0.0935,0.16592 0.12696,0.35436 0.1128,0.57409 0.082,0.54549 0.0664,0.42057 0.067,0.24369 0.11858,0.35473 0.0687,0.34992 0.0693,0.23047 0.12355,0.4691 0.0538,0.20521 0.0903,0.28551 0.1102,0.43507 0.0748,0.2008 0.11344,0.20293 0.11558,0.35261 0.0588,0.33094 0.0594,0.24093 0.14001,0.59179 0.0612,0.2669 0.10363,0.32807 0.063,0.21236 0.12816,0.54966 0.0647,0.35165 0.0876,0.47249 0.0665,0.31237 0.0899,0.3337 0.0455,0.14769 0.1157,0.31799 0.0943,0.26338 0.0714,0.12786 0.0725,0.10284 0.0489,0.1143 0.0993,0.49051 0.0758,0.42836 0.0766,0.40382 0.0518,0.25409 0.0787,0.36136 0.10594,0.43428 0.081,0.31588 0.0548,0.20184 0.0833,0.19964 0.0848,0.23497 0.0571,0.22663 0.0575,0.29191 0.11719,0.694 0.0597,0.37548 0.0605,0.31908 0.0922,0.35057 0.0937,0.36831 0.0473,0.14802 0.1122,0.41079 0.0653,0.2874 0.0663,0.18336 0.10123,0.32762 0.0687,0.3353 0.0695,0.36709 0.0702,0.2058 0.10734,0.26625 0.10992,0.44202 0.056,0.28576 0.0567,0.22056 0.13505,0.54172 0.0588,0.33047 0.0594,0.30734 0.0602,0.32266 0.061,0.22744 0.10351,0.47288 0.0421,0.16792 0.0854,0.31692 0.0651,0.41211 0.044,0.23248 0.11185,0.40928 0.1137,0.3201 0.0697,0.15914 0.0708,0.12223 0.0478,0.0806 0.0973,0.28838 0.0995,0.41119 0.0506,0.17109 0.0512,0.10382 0.0518,0.0935 0.0789,0.21922 0.0668,0.202 0.0946,0.35554 0.0412,0.16051 0.0977,0.35698 0.0855,0.30044 0.058,0.17004 0.0885,0.32345 0.0601,0.24642 0.0763,0.30081 0.0777,0.28876 0.0632,0.26402 0.032,0.12614 0.0647,0.21528 0.0823,0.26822 0.0833,0.23444 0.0507,0.12593 0.0428,0.097 0.0432,0.10131 0.0524,0.10815 0.0531,0.10171 0.0719,0.2081 0.0365,0.12619 0.0368,0.10877 0.0934,0.26896 0.0763,0.25146 0.0484,0.15638 0.049,0.11518 0.0596,0.11981 0.0402,0.0854 0.0611,0.14273 0.0621,0.16244 0.0419,0.10447 0.0424,0.11105 0.0644,0.1513 0.0655,0.14531 0.0443,0.0988 0.0782,0.17237 0.0566,0.11591 0.0691,0.11778 0.0409,0.0597 0.0413,0.0719 0.0358,0.0742 0.0421,0.0852 0.0426,0.0797 0.0867,0.15591 0.0378,0.0698 0.0381,0.0665 0.0514,0.086 0.0785,0.13045 0.0332,0.0543 0.0335,0.0527 0.0679,0.10362 0.0275,0.0415 0.0417,0.0606 0.0848,0.11859 0.0431,0.0583 0.0436,0.0564 0.0739,0.0914 0.0375,0.0446 0.0379,0.043 0.0461,0.0505 0.0467,0.0506 0.0473,0.0508 0.0641,0.0682 0.0325,0.0343 0.0328,0.0344 0.0498,0.0518 0.0336,0.0348 0.0339,0.0344 0.0515,0.0519 0.0523,0.0532 0.0353,0.0356 0.0537,0.0539 0.0556,0.0555 0.0282,0.028 0.0284,0.0281 0.0722,0.0708 0.0441,0.0432 0.0297,0.029 0.03,0.0292 0.0609,0.0589 0.0309,0.0298 0.0469,0.0451 0.0477,0.0456 0.0403,0.0385 0.0244,0.0232 0.0495,0.0469 0.0503,0.0476 0.034,0.0321 0.0258,0.0243 0.026,0.0243 0.0527,0.0492 0.0447,0.0417 0.0271,0.025 0.055,0.0506 0.0373,0.0345 0.0188,0.0174 0.019,0.0173 0.0287,0.0262 0.029,0.0264 0.0342,0.0311 0.0346,0.0316 0.0301,0.0273 0.0508,0.046 0.0362,0.0327 0.0367,0.0329 0.0318,0.0285 0.0322,0.0288 0.0546,0.0487 0.0277,0.0246 0.028,0.0249 0.0227,0.02 0.0459,0.0404 0.0233,0.0205 0.0235,0.0206 0.0237,0.0207 0.0481,0.0419 0.0244,0.0212 0.0246,0.0214 0.0249,0.0215 0.0442,0.038 0.045,0.0386 0.0261,0.0223 0.0264,0.0226 0.0402,0.0342 0.0546,0.0463 0.0278,0.0235 0.0281,0.0237 0.0285,0.0239 0.0507,0.0425 0.0221,0.0184 0.0298,0.0248 0.0302,0.0251 0.0306,0.0253 0.0154,0.0128 0.0312,0.0257 0.0317,0.026 0.0321,0.0263 0.0326,0.0267 0.0165,0.0135 0.0417,0.034 0.0426,0.0346 0.0259,0.021 0.0263,0.0212 0.0266,0.0214 0.0269,0.0217 0.0364,0.0293 0.0185,0.0148 0.0374,0.0299 0.019,0.0151 0.0385,0.0306 0.0195,0.0155 0.0197,0.0156 0.0199,0.0158 0.0417,0.033 0.0219,0.0173 0.0166,0.0131 0.0167,0.0132 0.0339,0.0266 0.0344,0.027 0.0174,0.0137 0.0176,0.0138 0.0357,0.0279 0.0242,0.0188 0.0122,0.009 0.0308,0.024 0.0187,0.0145 0.038,0.0295 0.0258,0.0199 0.013,0.0101 0.0263,0.0203 0.0267,0.0206 0.0271,0.0208 0.0275,0.0211 0.0139,0.0107 0.014,0.0107 0.0283,0.0217 0.0251,0.0192 0.0255,0.0195 0.0221,0.0169 0.0187,0.0142 0.0188,0.0144 0.0229,0.0174 0.0232,0.0177 0.0314,0.0239 0.0239,0.0182 0.0161,0.0122 0.0327,0.0248 0.027,0.0205 0.0317,0.024 0.0129,0.01 0.0304,0.0229 0.0332,0.025 0.0247,0.0186 0.0228,0.0172 0.0138,0.0104 0.0327,0.0246 0.019,0.0143 0.0289,0.0217 0.0344,0.0258 0.015,0.0112 0.0202,0.0151 0.0204,0.0153 0.0207,0.0155 0.0209,0.0156 0.0373,0.0278 0.0163,0.0121 0.0164,0.0122 0.0166,0.0124 0.0252,0.0188 0.0199,0.0148 0.0231,0.0171 0.0234,0.0174 0.0118,0.009 0.024,0.0178 0.0305,0.0226 0.0186,0.0138 0.022,0.0163 0.0288,0.0213 0.0162,0.012 0.0164,0.0121 0.0333,0.0246 0.0135,0.01 0.0275,0.0203 0.0139,0.0103 0.0283,0.0208 0.0216,0.0159 0.0109,0.008 0.0165,0.0121 0.0167,0.0123 0.0226,0.0166 0.0153,0.0112 0.0232,0.017 0.0157,0.0115 0.0319,0.0234 0.0244,0.0179 0.0165,0.0121 0.0251,0.0184 0.017,0.0125 0.0259,0.019 0.0175,0.0128 0.0178,0.013 0.0271,0.0198 0.0277,0.0202 0.0211,0.0154 0.0215,0.0157 0.0218,0.0159 0.0222,0.0162 0.015,0.0109 0.0228,0.0166 0.0154,0.0112 0.0156,0.0114 0.0158,0.0115 0.0241,0.0175 0.0245,0.0179 0.025,0.0182 0.017,0.0123 0.0129,0.009 0.013,0.009 0.0175,0.0127 0.0267,0.0194 0.0182,0.0132 0.0184,0.0134 0.0187,0.0136 0.0142,0.0103 0.0144,0.0104 0.0194,0.0141 0.0222,0.0161 0.0196,0.0142 0.0184,0.0133 0.0187,0.0135 0.0126,0.009 0.0256,0.0185 0.013,0.009 0.0198,0.0143 0.0201,0.0145 0.0136,0.01 0.0312,0.0225 0.0284,0.0205 0.0181,0.0131 0.011,0.008 0.0111,0.008 0.0226,0.0163 0.023,0.0166 0.0156,0.0113 0.0238,0.0172 0.0263,0.019 0.0145,0.0104 0.0146,0.0106 0.0127,0.009 0.015,0.0108 0.0218,0.0157 0.0267,0.0192 0.0212,0.0153 0.0146,0.0105 0.0148,0.0107 0.0319,0.023 0.0196,0.0141 0.0132,0.01 0.0219,0.0158 0.0206,0.0148 0.0122,0.009 0.0212,0.0153 0.0253,0.0182 0.011,0.008 0.0149,0.0107 0.0113,0.008 0.0288,0.0208 0.0216,0.0156 0.016,0.0115 0.0163,0.0117 0.0186,0.0134 0.0147,0.0106 0.008,0.006 0.0129,0.009 0.024,0.0173 0.0156,0.0112 0.0158,0.0114 0.0207,0.0149 0.0219,0.0158 0.0125,0.009 0.0169,0.0122 0.0187,0.0135 0.0117,0.008 0.0252,0.0182 0.0228,0.0164 0.0155,0.0112 0.0157,0.0113 0.0127,0.009 0.0194,0.0141 0.0165,0.0118 0.0201,0.0144 0.0102,0.007 0.0103,0.007 0.0139,0.01 0.0194,0.0139 0.0135,0.01 0.0114,0.008 0.0236,0.0168 0.0122,0.009 0.023,0.0164 0.0117,0.008 0.009,0.006 0.0169,0.0121 0.0169,0.0121 0.0119,0.008 0.0107,0.008 0.0126,0.009 0.0164,0.0117 0.0186,0.0132 0.0142,0.0101 0.0115,0.008 0.0106,0.008 0.0216,0.0154 0.013,0.009 0.0121,0.009 0.0113,0.008 0.0124,0.009 0.0115,0.008 0.0181,0.0129 0.009,0.006 0.0176,0.0125 0.0202,0.0144 0.0108,0.008 0.0108,0.008 0.009,0.006 0.009,0.006 0.0156,0.0112 0.0136,0.01 0.0139,0.01 0.0141,0.0101 0.007,0.005 0.01,0.007 0.0147,0.0105 0.01,0.007 0.0101,0.007 0.018,0.0129 0.0131,0.009 0.005,0.004 0.005,0.004 0.008,0.006 0.008,0.006 0.016,0.0115 0.007,0.005 0.007,0.005 0.016,0.0115 0.0119,0.009 0.0121,0.009 0.009,0.007 0.009,0.007 0.016,0.0114 0.008,0.006 0.008,0.006 0.01,0.007 0.009,0.006 0.0119,0.008 0.006,0.004 0.009,0.007 0.0124,0.009 0.009,0.007 0.01,0.007 0.01,0.007 0.008,0.006 0.008,0.006 0.012,0.009 0.0123,0.009 0.007,0.005 0.0109,0.008 0.006,0.004 0.009,0.007 0.008,0.005 0.0136,0.01 0.008,0.006 0.008,0.006 0.0102,0.007 0.006,0.004 0.006,0.005 0.0129,0.009 0.008,0.005 0.009,0.006 0.009,0.007 0.005,0.004 0.0137,0.01 0.0112,0.008 0.006,0.004 0.009,0.006 0.009,0.006 0.0121,0.009 0.009,0.007 0.006,0.004 0.006,0.005 0.013,0.009 0.008,0.006 0.005,0.004 0.0103,0.007 0.007,0.005 0.009,0.006 0.005,0.004 0.013,0.009 0.006,0.004 0.006,0.004 0.0119,0.008 0.008,0.005 0.005,0.004 0.005,0.004 0.008,0.006 0.008,0.006 0.011,0.008 0.006,0.004 0.006,0.004 0.009,0.006 0.006,0.004 0.006,0.004 0.006,0.004 0.008,0.006 0.008,0.006 0.006,0.005 0.007,0.005 0.0101,0.007 0.005,0.004 0.005,0.004 0.005,0.004 0.005,0.004 0.005,0.004 0.006,0.004 0.004,0.003 0.004,0.003 0.008,0.005 0.008,0.006 0.004,0.003 0.004,0.003 0.008,0.006 0.008,0.006 0.004,0.003 0.004,0.003 0.004,0.003 0.008,0.006 0.004,0.003 0.004,0.003 0.009,0.006 0.009,0.006 0.005,0.003 0.005,0.003 0.01,0.007 0.005,0.004 0.005,0.004 0.005,0.004 0.005,0.004 0.005,0.004 0.008,0.006 0.004,0.003 0.004,0.003 0.006,0.004 0.006,0.004 0.003,0.002 0.003,0.002 0.006,0.004 0.006,0.004 0.006,0.004 0.007,0.005 0.003,0.002 0.003,0.002 0.007,0.005 0.004,0.003 0.004,0.003 0.007,0.005 0.004,0.003 0.004,0.003 0.004,0.003 0.004,0.003 0.008,0.006 0.004,0.003 0.004,0.003 0.002,0.001 0.002,0.001 0.004,0.003 0.004,0.003 0.004,0.003 0.002,0.002 0.002,0.002 0.005,0.003 0.005,0.003 0.005,0.003 0.005,0.003 0.005,0.003 0.002,0.002 0.005,0.004 0.002,0.002 0.005,0.004 0.005,0.004 0.004,0.003 0.004,0.003 0.004,0.003 0.004,0.003 0.004,0.003 0.004,0.003 0.004,0.003 0.004,0.003 0.002,0.002 0.002,0.002 0.004,0.003 0.004,0.003 0.004,0.003 0.002,0.002 0.002,0.002 0.005,0.003 0.002,0.002 0.002,0.002 0.005,0.003 0.003,0.002 0.003,0.002 0.003,0.002 0.003,0.002 0.003,0.002 0.003,0.002 0.003,0.002 0.003,0.002 0.003,0.002 0.003,0.002 0.003,0.002 0.003,0.002 0.003,0.002 0.005,0.004 0.003,0.002 0.002,0.001 0.003,0.002 0.003,0.002 0.003,0.002 0.003,0.002 0.005,0.003 0.003,0.002 0.002,0.001 0.003,0.002 0.002,0.001 0.004,0.003 0.004,0.003 0.002,0.001 0.004,0.003 0.004,0.003 0.002,0.001 0.002,0.001 0.005,0.004 0.004,0.003 0.003,0.002 0.003,0.002 0.002,0.001 0.003,0.002 0.002,0.001 0.003,0.002 0.004,0.003" /></g></g><g
       id="g342"><g
         clip-path="url(#clipPath346)"
         id="g344"><path
           id="path350"
           style="fill:none;stroke:#d62728;stroke-width:0.75;stroke-linecap:square;stroke-linejoin:round;stroke-miterlimit:10;stroke-dasharray:none;stroke-opacity:1"
           d="m 43.219991,47.486639 0.02759,0.04294 0.03476,0.0541 0.0438,0.06816 0.05519,0.08588 0.06953,0.108208 0.08761,0.136345 0.110399,0.171807 0.106742,0.166115 0.07969,0.12402 0.12104,0.188366 0.171723,0.267241 0.231852,0.360816 0.30352,0.472348 0.390595,0.607856 0.427572,0.6654 0.348442,0.542256 0.277581,0.431982 0.218722,0.340381 0.193005,0.30036 0.173813,0.270493 0.158842,0.247196 0.225796,0.351391 0.203454,0.316621 0.210571,0.327697 0.0984,0.153137 0.09445,0.146991 0.178548,0.277864 0.1667,0.259422 0.177548,0.276306 0.166663,0.259366 0.157366,0.244898 0.07559,0.117644 0.07372,0.114722 0.156502,0.243553 0.149008,0.231892 0.142396,0.2216 0.136508,0.212438 0.141639,0.220424 0.136111,0.21182 0.131126,0.204062 0.06384,0.09935 0.06276,0.09767 0.13045,0.203011 0.126176,0.196359 0.122262,0.190268 0.118663,0.184667 0.121648,0.189313 0.118231,0.183995 0.115067,0.17907 0.05642,0.0878 0.05571,0.08669 0.1145,0.178189 0.111698,0.173828 0.109081,0.169755 0.106628,0.165938 0.108553,0.168933 0.10621,0.165287 0.104006,0.161858 0.05121,0.0797 0.05071,0.07892 0.103509,0.161086 0.101521,0.157989 0.09964,0.155059 0.09785,0.152282 0.0498,0.07751 0.04937,0.07682 0.09746,0.151666 0.09583,0.149133 0.09428,0.146723 0.09538,0.14844 0.0939,0.146124 0.04641,0.07223 0.04606,0.07169 0.04572,0.07116 0.04539,0.07064 0.09205,0.143252 0.09075,0.141221 0.0895,0.139277 0.0443,0.06893 0.044,0.06848 0.08909,0.138642 0.08794,0.136848 0.08683,0.135126 0.06485,0.100923 0.06426,0.100007 0.08592,0.13371 0.06378,0.09925 0.06323,0.0984 0.08347,0.129906 0.08405,0.130797 0.08313,0.129371 0.04123,0.06417 0.04102,0.06383 0.08139,0.126667 0.08188,0.127427 0.08106,0.126146 0.04023,0.06261 0.04003,0.0623 0.07949,0.12371 0.07991,0.124359 0.07917,0.123204 0.0589,0.09167 0.05851,0.09105 0.05864,0.09126 0.05826,0.09066 0.07744,0.120507 0.07678,0.119494 0.07615,0.118509 0.0383,0.05961 0.03815,0.05937 0.07584,0.118027 0.05649,0.08792 0.05617,0.08741 0.05626,0.08755 0.05594,0.08705 0.07437,0.11574 0.07383,0.114902 0.03672,0.05714 0.03659,0.05694 0.07352,0.114413 0.07301,0.113626 0.05444,0.08471 0.05416,0.08429 0.05422,0.08438 0.05396,0.08397 0.07175,0.111664 0.0713,0.110963 0.03549,0.05522 0.03538,0.05506 0.071,0.1105 0.07058,0.109841 0.07017,0.1092 0.03493,0.05436 0.03483,0.05421 0.03499,0.05445 0.03489,0.0543 0.06949,0.108145 0.06911,0.107557 0.03442,0.05356 0.03433,0.05342 0.06883,0.107116 0.03428,0.05335 0.03419,0.05321 0.06813,0.106024 0.06779,0.105496 0.03397,0.05286 0.03388,0.05273 0.06753,0.105086 0.06721,0.104591 0.06707,0.104377 0.03342,0.05201 0.03334,0.05189 0.06664,0.103706 0.06635,0.103252 0.03307,0.05146 0.03299,0.05135 0.06608,0.102841 0.06581,0.102415 0.04918,0.07654 0.04903,0.07631 0.02453,0.03817 0.02449,0.03812 0.04888,0.07606 0.06504,0.101219 0.0648,0.100842 0.03231,0.05028 0.03225,0.05019 0.06456,0.100469 0.06433,0.10012 0.07216,0.112305 0.03598,0.056 0.03591,0.05589 0.05187,0.08072 0.05174,0.08052 0.05161,0.08032 0.05148,0.08012 0.06335,0.09858 0.0316,0.04918 0.03156,0.04911 0.06299,0.09802 0.06281,0.09775 0.03141,0.04888 0.03137,0.04882 0.06262,0.09744 0.06246,0.0972 0.03117,0.04851 0.03113,0.04845 0.06226,0.09689 0.03108,0.04836 0.03104,0.0483 0.06198,0.09643 0.06184,0.09621 0.03477,0.05409 0.03474,0.05401 0.0347,0.05393 0.03466,0.05385 0.03462,0.05375 0.03459,0.05364 0.06908,0.106827 0.05371,0.08264 0.05365,0.08193 0.02681,0.04063 0.0268,0.04033 0.05358,0.07946 0.05361,0.0776 0.05364,0.07536 0.02684,0.03687 0.02686,0.03627 0.05378,0.0707 0.06162,0.07839 0.03088,0.0386 0.03093,0.03853 0.062,0.07345 0.03109,0.03456 0.03117,0.0345 0.06256,0.0685 0.0628,0.06732 0.03151,0.03318 0.03162,0.0329 0.03165,0.0326 0.03172,0.03235 0.03178,0.03212 0.03186,0.03193 0.03196,0.03177 0.032,0.0316 0.06423,0.06291 0.06447,0.06305 0.04854,0.04785 0.0487,0.04851 0.04886,0.049 0.04902,0.04878 0.06555,0.06272 0.13203,0.107394 0.20024,0.104705 0.202828,0.149585 0.204957,0.135164 0.172294,0.108981 0.252659,0.146244 0.238112,0.123648 0.262773,0.124228 0.130589,0.05276 0.238017,0.07155 0.217763,-9.03e-4 0.157015,-0.07905 0.158256,-0.182172 0.09361,-0.174708 0.09404,-0.223116 0.131924,-0.370835 0.132759,-0.38211 0.190652,-0.550432 0.114736,-0.478018 0.115275,-0.694546 0.115488,0.136372 0.116046,0.13706 0.116367,0.135892 0.116913,-0.803257 0.117107,-1.062828 0.117647,0.12664 0.117762,0.126392 0.118181,-1.373379 0.157774,-0.526394 0.118446,-0.0372 0.19675,-0.866044 0.234375,-0.32248 0.155698,0.04921 0.154669,0.135802 0.154369,0.135943 0.0769,0.06784 0.07683,0.06758 0.114575,0.100391 0.114435,0.0998 0.152003,0.131968 0.22705,0.195653 0.150357,0.128464 0.150182,0.127735 0.223822,0.188936 0.111394,0.09324 0.111324,0.0941 0.147671,0.124498 0.147572,0.122873 0.2202,0.181971 0.219238,0.178376 0.14527,0.117873 0.145238,0.116954 0.07219,0.05767 0.144375,0.115139 0.215718,0.170623 0.143543,0.112794 0.14271,0.111685 0.14275,0.111834 0.212918,0.165553 0.141582,0.108677 0.141217,0.107838 0.140859,0.108026 0.280687,0.213355 0.139829,0.104336 0.139272,0.104023 0.139406,0.10463 0.104017,0.07737 0.104101,0.0805 0.207551,0.160019 0.207003,0.150183 0.102947,0.07425 0.103053,0.0745 0.137102,0.0999 0.205327,0.147954 0.170277,0.120432 0.10233,0.07221 0.135679,0.09711 0.20348,0.144885 0.203062,0.143677 0.134712,0.09527 0.134976,0.09557 0.134259,0.0992 0.134535,0.102179 0.133824,0.09881 0.134113,0.09444 0.133407,0.09263 0.133708,0.09315 0.133007,0.09113 0.133321,0.08987 0.132624,0.08861 0.132949,0.0902 0.264861,0.178102 0.131904,0.08617 0.132252,0.08758 0.131567,0.09193 0.131925,0.0918 0.131243,0.08544 0.131612,0.08639 0.262255,0.170435 0.130636,0.0823 0.131025,0.08435 0.130353,0.09004 0.13075,0.08999 0.130081,0.08238 0.130488,0.08296 0.260069,0.163678 0.129575,0.07888 0.129999,0.0816 0.129338,0.0879 0.129771,0.08786 0.129113,0.07981 0.129554,0.08005 0.258253,0.158013 0.128692,0.07604 0.12915,0.07934 0.128496,0.08611 0.128962,0.08604 0.128309,0.07766 0.128783,0.07766 0.256755,0.153365 0.127964,0.07374 0.128452,0.07685 0.127805,0.07771 0.128299,0.08181 0.127652,0.0809 0.128154,0.0766 0.127509,0.0749 0.128016,0.0773 0.06362,0.03799 0.06375,0.03837 0.127887,0.07721 0.127242,0.07813 0.127764,0.08121 0.12712,0.0763 0.127648,0.07967 0.127005,0.07784 0.127539,0.07291 0.126897,0.07225 0.127436,0.07219 0.126795,0.07456 0.12734,0.08164 0.126699,0.07709 0.127251,0.0727 0.253783,0.143858 0.126525,0.06862 0.127088,0.0742 0.126447,0.08196 0.127015,0.08187 0.126374,0.0728 0.126947,0.07113 0.253199,0.140568 0.126242,0.06748 0.126828,0.07013 0.126185,0.0729 0.126774,0.07617 0.126132,0.07227 0.126727,0.07772 0.252773,0.155092 0.252691,0.134663 0.126,0.0672 0.126609,0.07075 0.125964,0.07024 0.126578,0.07714 0.252492,0.153758 0.252441,0.133917 0.125881,0.06635 0.126509,0.07478 0.252361,0.149832 0.252332,0.133506 0.12583,0.06618 0.126471,0.07628 0.252291,0.152971 0.25228,0.134346 0.125808,0.06669 0.126462,0.07298 0.252279,0.146262 0.252287,0.132375 0.125814,0.06615 0.126481,0.06979 0.125822,0.06938 0.126493,0.07573 0.252347,0.151093 0.252377,0.132484 0.125862,0.06623 0.126544,0.06937 0.12588,0.06893 0.126566,0.07552 0.252498,0.15077 0.252547,0.132786 0.125949,0.06639 0.126646,0.06944 0.125977,0.06901 0.126677,0.07545 0.252722,0.150658 0.252789,0.133348 0.126071,0.06669 0.126782,0.06964 0.126106,0.06922 0.126821,0.07547 0.253011,0.150737 0.253093,0.134536 0.126223,0.0669 0.126948,0.07448 0.253265,0.149385 0.253357,0.135046 0.126356,0.06756 0.127089,0.07027 0.126403,0.06989 0.127139,0.0757 0.253648,0.15254 0.25375,0.138943 0.253855,0.141712 0.126604,0.06962 0.127353,0.07574 0.254072,0.151965 0.254185,0.137321 0.126767,0.06866 0.127526,0.06904 0.126823,0.07011 0.254473,0.145267 0.127646,0.07302 0.254653,0.141544 0.254773,0.144758 0.127059,0.07241 0.127832,0.07007 0.12712,0.0764 0.255081,0.153552 0.255208,0.139873 0.128024,0.07187 0.255399,0.144232 0.255529,0.145989 0.127432,0.07305 0.12822,0.07139 0.127496,0.0771 0.255853,0.154999 0.255983,0.142668 0.128421,0.07305 0.256182,0.147079 0.256315,0.145734 0.256446,0.14775 0.127885,0.07325 0.128689,0.07618 0.256712,0.152881 0.256841,0.15368 0.25698,0.160781 0.25711,0.160973 0.25724,0.161422 0.25738,0.161749 0.25751,0.161801 0.25764,0.161881 0.25778,0.162153 0.2579,0.162445 0.25804,0.16274 0.25817,0.163037 0.25831,0.163335 0.25843,0.163635 0.25857,0.163936 0.2587,0.164239 0.25884,0.164543 0.25896,0.164848 0.25909,0.165155 0.25923,0.165462 0.25936,0.16577 0.25949,0.166079 0.25961,0.166389 0.25975,0.1667 0.25988,0.16701 0.26,0.167322 0.26013,0.167635 0.26026,0.167946 0.26039,0.168258 0.26051,0.168571 0.26064,0.168882 0.26077,0.169195 0.26088,0.169507 0.26101,0.169818 0.26114,0.170129 0.26125,0.17044 0.26137,0.17075 0.26149,0.171058 0.26161,0.171366 0.26173,0.171673 0.26184,0.171978 0.26196,0.172282 0.26207,0.172585 0.26217,0.172886 0.26229,0.173185 0.2624,0.173482 0.26251,0.173776 0.2626,0.174068 0.26271,0.174358 0.26281,0.174645 0.2629,0.17493 0.26301,0.175211 0.26309,0.175491 0.26319,0.175767 0.26327,0.17604 0.26336,0.176311 0.26345,0.176578 0.26353,0.176842 0.26361,0.177104 0.26369,0.177362 0.26377,0.177617 0.26384,0.177869 0.26391,0.17812 0.26397,0.17836 0.26404,0.17859 0.2641,0.17884 0.26416,0.17906 0.26421,0.1793 0.26426,0.17951 0.26431,0.17974 0.26435,0.17995 0.2644,0.18016 0.26443,0.18037 0.26446,0.18057 0.26449,0.18076 0.26452,0.18096 0.26454,0.18115 0.26456,0.18133 0.26456,0.18151 0.26458,0.18168 0.26458,0.18183 0.26457,0.18197 0.26457,0.1821 0.26456,0.18223 0.26453,0.18236 0.26452,0.18247 0.26448,0.18258 0.26445,0.18269 0.2644,0.18279 0.26436,0.18289 0.2643,0.18297 0.26424,0.18305 0.26417,0.18313 0.2641,0.1832 0.26402,0.18327 0.26393,0.18332 0.26384,0.18337 0.26373,0.18341 0.26362,0.18345 0.2635,0.18349 0.26338,0.18351 0.26323,0.18353 0.2631,0.18354 0.26294,0.18354 0.26278,0.18355 0.26262,0.18354 0.26243,0.18352 0.26225,0.1835 0.26206,0.18348 0.26186,0.18344 0.26164,0.18339 0.26142,0.18336 0.2612,0.18329 0.26096,0.18323 0.26071,0.18317 0.26046,0.18309 0.2602,0.183 0.25992,0.18292 0.25965,0.18281 0.25936,0.1827 0.25906,0.18259 0.25877,0.18247 0.25845,0.18233 0.25814,0.18219 0.2578,0.18204 0.25748,0.18188 0.25714,0.18172 0.25679,0.18154 0.25643,0.18137 0.25607,0.18118 0.2557,0.18098 0.25533,0.18078 0.25494,0.18057 0.25456,0.18036 0.25416,0.18013 0.25375,0.1799 0.25335,0.17967 0.25293,0.17942 0.2525,0.17918 0.25208,0.17892 0.25164,0.17867 0.2512,0.1784 0.25075,0.17813 0.2503,0.17787 0.24983,0.17758 0.24937,0.17729 0.24889,0.17702 0.24841,0.17671 0.24793,0.17642 0.24745,0.17612 0.24694,0.17581 0.24645,0.1755 0.24594,0.17519 0.24544,0.17487 0.24492,0.17455 0.2444,0.17422 0.24388,0.17389 0.24336,0.17355 0.24284,0.1732 0.2423,0.17284 0.24176,0.1725 0.24124,0.17213 0.24069,0.17177 0.24016,0.17142 0.23961,0.17104 0.23907,0.17069 0.23853,0.17031 0.23798,0.16994 0.23743,0.16957 0.23689,0.1692 0.23633,0.16883 0.23579,0.16845 0.23524,0.16807 0.23469,0.1677 0.23413,0.16732 0.23359,0.16695 0.23304,0.16656 0.23249,0.16619 0.23194,0.16581 0.2314,0.16544 0.23084,0.16505 0.2303,0.16468 0.22976,0.1643 0.22921,0.16392 0.22866,0.16355 0.22813,0.16317 0.22758,0.1628 0.22704,0.16242 0.2265,0.16204 0.22597,0.16167 0.22543,0.1613 0.22489,0.16093 0.22436,0.16055 0.22383,0.16019 0.22329,0.15981 0.22277,0.15944 0.22224,0.15908 0.22171,0.1587 0.22119,0.15834 0.22066,0.15798 0.22015,0.15761 0.21962,0.15724 0.2191,0.15688 0.21859,0.15652 0.21807,0.15616 0.21755,0.1558 0.21704,0.15543 0.21653,0.15508 0.21603,0.15472 0.21551,0.15436 0.21501,0.15401 0.2145,0.15366 0.21401,0.1533 0.2135,0.15295 0.213,0.15259 0.21251,0.15225 0.21201,0.1519 0.21152,0.15155 0.21103,0.1512 0.21053,0.15087 0.21006,0.15051 0.20956,0.15018 0.20909,0.14983 0.20861,0.1495 0.20812,0.14916 0.20766,0.14882 0.20717,0.14849 0.20671,0.14815 0.20623,0.14782 0.20577,0.14749 0.2053,0.14716 0.20484,0.14683 0.20437,0.1465 0.20392,0.14618 0.20345,0.14586 0.203,0.14552 0.20254,0.14521 0.20209,0.14489 0.20163,0.14456 0.20119,0.14425 0.20074,0.14393 0.20028,0.14361 0.19985,0.14329 0.19939,0.14298 0.19896,0.14267 0.19851,0.14235 0.19807,0.14203 0.19763,0.14173 0.19718,0.14141 0.19676,0.1411 0.19631,0.14079 0.19587,0.14048 0.19545,0.14017 0.195,0.13986 0.19458,0.13956 0.19414,0.13924 0.19371,0.13895 0.19328,0.13863 0.19285,0.13833 0.19243,0.13803 0.19199,0.13772 0.19158,0.13742 0.19114,0.13712 0.19073,0.13681 0.1903,0.13652 0.18988,0.13621 0.18946,0.13592 0.18904,0.13562 0.18863,0.13532 0.1882,0.13503 0.1878,0.13472 0.18738,0.13444 0.18696,0.13414 0.18656,0.13385 0.18615,0.13355 0.18573,0.13327 0.18534,0.13297 0.18492,0.13269 0.18452,0.13239 0.18412,0.13211 0.18372,0.13183 0.18332,0.13154 0.18293,0.13126 0.18253,0.13097 0.18213,0.13069 0.18175,0.13042 0.18135,0.13014 0.18097,0.12986 0.18058,0.12958 0.1802,0.12931 0.17981,0.12904 0.17943,0.12876 0.17906,0.1285 0.17868,0.12822 0.17831,0.12796 0.17793,0.1277 0.17757,0.12743 0.1772,0.12717 0.17683,0.12691 0.17647,0.12664 0.17611,0.12639 0.17576,0.12614 0.17539,0.12588 0.17505,0.12563 0.17469,0.12538 0.17435,0.12513 0.174,0.12488 0.17365,0.12463 0.17332,0.12439 0.17297,0.12415 0.17265,0.12391 0.17231,0.12368 0.17198,0.12343 0.17165,0.12321 0.17133,0.12297 0.17101,0.12274 0.17069,0.12252 0.17037,0.12228 0.17006,0.12207 0.16975,0.12184 0.16945,0.12163 0.16915,0.12141 0.16884,0.12119 0.16855,0.12098 0.16826,0.12078 0.16797,0.12057 0.16769,0.12036 0.16741,0.12017 0.16714,0.11997 0.16686,0.11978 0.1666,0.11959 0.16634,0.1194 0.16608,0.11921 0.16583,0.11904 0.16558,0.11886 0.16534,0.11868 0.1651,0.11852 0.16487,0.11835 0.16465,0.11818 0.16442,0.11803 0.1642,0.11788 0.164,0.11772 0.16379,0.11757 0.16359,0.11744 0.1634,0.11729 0.16321,0.11716 0.16302,0.11703 0.16285,0.1169 0.16268,0.11678 0.16251,0.11667 0.16236,0.11655 0.1622,0.11643 0.16205,0.11634 0.16192,0.11623 0.16177,0.11614 0.16165,0.11604 0.16153,0.11596 0.16141,0.11587 0.16131,0.1158 0.1612,0.11572 0.1611,0.11566 0.16102,0.11559 0.16094,0.11554 0.16086,0.11548 0.1608,0.11543 0.16074,0.1154 0.16069,0.11536 0.16065,0.11533 0.16061,0.1153 0.16059,0.11529 0.16057,0.11527 0.16056,0.11527 0.16056,0.11526 0.16057,0.11528 0.16058,0.11528 0.16062,0.11531 0.16064,0.11533 0.1607,0.11537 0.16075,0.1154 0.16081,0.11545 0.16089,0.11551 0.16098,0.11557 0.16107,0.11563 0.16118,0.11572 0.1613,0.1158 0.16143,0.1159 0.16158,0.11599 0.16173,0.11612 0.1619,0.11623 0.16208,0.11636 0.16227,0.1165 0.16249,0.11666 0.16271,0.11681 0.16294,0.11699 0.1632,0.11716 0.16347,0.11736 0.16375,0.11757 0.16406,0.11778 0.16437,0.11801 0.16471,0.11825 0.16506,0.1185 0.16543,0.11878 0.16583,0.11905 0.16623,0.11935 0.16667,0.11966 0.16713,0.11998 0.1676,0.12033 0.16809,0.12069 0.16863,0.12106 0.16917,0.12146 0.16974,0.12186 0.17034,0.1223 0.085,0.0611 0.0859,0.0617 0.17163,0.12322 0.17232,0.12372 0.17304,0.12423 0.0864,0.062 0.0874,0.0627 0.17458,0.12534 0.1754,0.12593 0.17626,0.12655 0.0881,0.0632 0.0891,0.064 0.0885,0.0636 0.0896,0.0643 0.089,0.0639 0.0901,0.0647 0.18011,0.12931 0.18118,0.13008 0.0906,0.0651 0.0917,0.0658 0.0912,0.0655 0.0923,0.0663 0.18471,0.13262 0.18599,0.13354 0.0931,0.0668 0.0943,0.0677 0.18875,0.13552 0.19024,0.13658 0.0953,0.0684 0.0965,0.0693 0.19341,0.13886 0.19512,0.14009 0.0978,0.0702 0.0991,0.0712 0.19879,0.14272 0.20076,0.14414 0.1007,0.0723 0.10214,0.0733 0.20502,0.1472 0.10291,0.0739 0.10442,0.075 0.10411,0.0747 0.10565,0.0759 0.10536,0.0756 0.10696,0.0768 0.21502,0.15438 0.10809,0.0776 0.10979,0.0788 0.11006,0.079 0.22248,0.15973 0.11246,0.0807 0.0564,0.0405 0.0569,0.0409 0.11419,0.082 0.17285,0.1241 0.1165,0.0837 0.11748,0.0843 0.17823,0.12797 0.18035,0.12948 0.0912,0.0655 0.10721,0.077 0.0771,0.0553 0.0931,0.0668 0.17262,0.12394 0.0792,0.0568 0.0958,0.0688 0.12886,0.0925 0.13026,0.0935 0.0986,0.0708 0.13284,0.0954 0.11752,0.0844 0.1017,0.073 0.0513,0.0369 0.12024,0.0863 0.13051,0.0937 0.079,0.0567 0.14196,0.10193 0.162,0.11631 0.0727,0.0522 0.10566,0.0759 0.0975,0.07 0.14077,0.10106 0.10464,0.0751 0.11514,0.0827 0.0774,0.0556 0.1374,0.0986 0.0894,0.0641 0.1054,0.0757 0.10668,0.0766 0.0613,0.044 0.10346,0.0743 0.13043,0.0936 0.14362,0.10311 0.0647,0.0464 0.0431,0.031 0.0872,0.0626 0.13237,0.095 0.13434,0.0965 0.11369,0.0816 0.069,0.0496 0.13966,0.10027 0.14238,0.10223 0.0961,0.069 0.0728,0.0523 0.0737,0.053 0.074,0.0531 0.10019,0.0719 0.1268,0.091 0.11598,0.0833 0.11766,0.0845 0.10629,0.0763 0.0538,0.0387 0.13587,0.0975 0.11089,0.0796 0.0558,0.04 0.0847,0.0608 0.14353,0.10306 0.16138,0.11586 0.10437,0.0749 0.0909,0.0653 0.0615,0.0441 0.0616,0.0442 0.0937,0.0673 0.12717,0.0913 0.11298,0.0811 0.0822,0.059 0.0665,0.0477 0.0671,0.0482 0.11876,0.0853 0.0688,0.0494 0.0694,0.0498 0.12372,0.0888 0.0539,0.0387 0.0904,0.0649 0.11032,0.0792 0.0749,0.0537 0.11357,0.0815 0.1157,0.0831 0.0588,0.0422 0.0595,0.0427 0.14015,0.10063 0.0613,0.044 0.10372,0.0745 0.0631,0.0453 0.12827,0.0921 0.0647,0.0465 0.0876,0.0629 0.0665,0.0478 0.0899,0.0646 0.0456,0.0327 0.11577,0.0831 0.0944,0.0678 0.0714,0.0513 0.0725,0.052 0.0489,0.0351 0.0993,0.0713 0.0758,0.0544 0.0767,0.055 0.0518,0.0372 0.0787,0.0565 0.10596,0.0761 0.081,0.0582 0.0548,0.0393 0.0833,0.0598 0.0848,0.0609 0.0571,0.041 0.0575,0.0413 0.1172,0.0841 0.0597,0.0429 0.0605,0.0434 0.0922,0.0662 0.0937,0.0673 0.0473,0.0339 0.11218,0.0806 0.0653,0.0469 0.0663,0.0476 0.10119,0.0727 0.0687,0.0493 0.0694,0.0498 0.0702,0.0504 0.10729,0.077 0.10986,0.0789 0.0559,0.0402 0.0566,0.0407 0.13496,0.0969 0.0587,0.0422 0.0593,0.0426 0.0601,0.0432 0.0609,0.0437 0.10344,0.0743 0.0421,0.0302 0.0853,0.0613 0.0651,0.0467 0.0439,0.0315 0.11175,0.0802 0.1136,0.0816 0.0696,0.05 0.0707,0.0508 0.0478,0.0343 0.0972,0.0698 0.0994,0.0714 0.0506,0.0363 0.0512,0.0367 0.0518,0.0372 0.0788,0.0566 0.0667,0.0479 0.0945,0.0678 0.0411,0.0295 0.0976,0.0701 0.0854,0.0614 0.0579,0.0416 0.0884,0.0635 0.06,0.0431 0.0762,0.0547 0.0776,0.0557 0.0631,0.0453 0.0319,0.0229 0.0646,0.0464 0.0822,0.059 0.0832,0.0598 0.0507,0.0364 0.0427,0.0307 0.0432,0.031 0.0524,0.0376 0.0531,0.0381 0.0718,0.0516 0.0364,0.0261 0.0367,0.0264 0.0933,0.067 0.0762,0.0547 0.0484,0.0347 0.049,0.0351 0.0595,0.0428 0.0402,0.0289 0.0611,0.0438 0.062,0.0445 0.0419,0.0301 0.0423,0.0304 0.0643,0.0462 0.0654,0.047 0.0442,0.0317 0.0781,0.0561 0.0566,0.0406 0.069,0.0496 0.0408,0.0293 0.0413,0.0296 0.0357,0.0256 0.0421,0.0302 0.0426,0.0306 0.0866,0.0622 0.0377,0.0271 0.0381,0.0273 0.0514,0.0369 0.0784,0.0563 0.0332,0.0238 0.0335,0.024 0.0678,0.0487 0.0275,0.0197 0.0416,0.0299 0.0847,0.0608 0.0431,0.0309 0.0436,0.0313 0.0738,0.053 0.0375,0.0269 0.0379,0.0272 0.046,0.033 0.0466,0.0335 0.0472,0.0339 0.064,0.0459 0.0324,0.0233 0.0327,0.0235 0.0497,0.0357 0.0335,0.0241 0.0339,0.0243 0.0515,0.0369 0.0523,0.0375 0.0353,0.0253 0.0537,0.0385 0.0556,0.0399 0.0282,0.0202 0.0284,0.0204 0.0721,0.0518 0.044,0.0316 0.0297,0.0213 0.03,0.0215 0.0608,0.0437 0.0309,0.0222 0.0469,0.0337 0.0476,0.0342 0.0402,0.0289 0.0244,0.0175 0.0494,0.0355 0.0502,0.0361 0.034,0.0244 0.0257,0.0185 0.026,0.0186 0.0526,0.0378 0.0446,0.032 0.0271,0.0194 0.055,0.0395 0.0373,0.0268 0.0188,0.0135 0.019,0.0136 0.0287,0.0206 0.029,0.0208 0.0342,0.0245 0.0346,0.0248 0.03,0.0216 0.0508,0.0365 0.0361,0.0259 0.0366,0.0263 0.0318,0.0228 0.0322,0.0231 0.0545,0.0392 0.0277,0.0199 0.028,0.0201 0.0226,0.0162 0.0459,0.0329 0.0233,0.0167 0.0235,0.0168 0.0237,0.017 0.0481,0.0345 0.0244,0.0175 0.0246,0.0177 0.0249,0.0179 0.0442,0.0317 0.045,0.0323 0.0261,0.0187 0.0264,0.0189 0.0401,0.0288 0.0545,0.0392 0.0278,0.0199 0.0281,0.0202 0.0284,0.0204 0.0506,0.0363 0.022,0.0158 0.0297,0.0213 0.0301,0.0216 0.0305,0.0219 0.0154,0.0111 0.0312,0.0224 0.0316,0.0227 0.0321,0.023 0.0325,0.0234 0.0164,0.0118 0.0417,0.0299 0.0425,0.0305 0.0259,0.0186 0.0262,0.0188 0.0265,0.0191 0.0269,0.0193 0.0364,0.0261 0.0184,0.0132 0.0374,0.0268 0.0189,0.0136 0.0384,0.0276 0.0195,0.014 0.0197,0.0141 0.0198,0.0143 0.0417,0.0299 0.0219,0.0157 0.0166,0.0119 0.0167,0.012 0.0338,0.0243 0.0344,0.0247 0.0174,0.0125 0.0176,0.0126 0.0357,0.0256 0.0241,0.0173 0.0122,0.009 0.0308,0.0221 0.0187,0.0134 0.038,0.0273 0.0258,0.0185 0.013,0.009 0.0263,0.0189 0.0266,0.0191 0.0271,0.0194 0.0274,0.0197 0.0139,0.01 0.014,0.01 0.0283,0.0203 0.0251,0.018 0.0255,0.0183 0.0221,0.0159 0.0186,0.0134 0.0188,0.0135 0.0229,0.0164 0.0231,0.0166 0.0314,0.0225 0.0239,0.0171 0.0161,0.0116 0.0326,0.0234 0.027,0.0194 0.0317,0.0227 0.0128,0.009 0.0303,0.0218 0.0331,0.0238 0.0247,0.0177 0.0228,0.0163 0.0138,0.01 0.0327,0.0235 0.019,0.0136 0.0289,0.0207 0.0343,0.0247 0.0149,0.0107 0.0201,0.0145 0.0204,0.0146 0.0206,0.0148 0.0209,0.015 0.0373,0.0267 0.0162,0.0117 0.0164,0.0118 0.0166,0.0119 0.0252,0.0181 0.0199,0.0143 0.023,0.0165 0.0234,0.0168 0.0118,0.008 0.0239,0.0172 0.0305,0.0219 0.0186,0.0133 0.022,0.0158 0.0287,0.0206 0.0162,0.0116 0.0164,0.0117 0.0333,0.0239 0.0135,0.01 0.0274,0.0197 0.0139,0.01 0.0282,0.0203 0.0215,0.0155 0.0109,0.008 0.0165,0.0118 0.0167,0.012 0.0225,0.0162 0.0152,0.0109 0.0231,0.0166 0.0157,0.0112 0.0318,0.0229 0.0243,0.0175 0.0165,0.0118 0.0251,0.018 0.017,0.0122 0.0259,0.0186 0.0175,0.0126 0.0178,0.0127 0.0271,0.0194 0.0276,0.0198 0.0211,0.0151 0.0214,0.0154 0.0218,0.0156 0.0221,0.0159 0.015,0.0108 0.0228,0.0163 0.0154,0.0111 0.0156,0.0112 0.0158,0.0113 0.024,0.0172 0.0245,0.0176 0.025,0.0179 0.0169,0.0121 0.0128,0.009 0.013,0.009 0.0175,0.0126 0.0267,0.0192 0.0181,0.013 0.0184,0.0132 0.0187,0.0134 0.0142,0.0102 0.0144,0.0103 0.0194,0.0139 0.0222,0.0159 0.0196,0.0141 0.0183,0.0132 0.0186,0.0134 0.0126,0.009 0.0256,0.0183 0.013,0.009 0.0198,0.0142 0.0201,0.0144 0.0136,0.01 0.0311,0.0224 0.0284,0.0204 0.0181,0.013 0.011,0.008 0.0111,0.008 0.0225,0.0162 0.023,0.0165 0.0156,0.0112 0.0238,0.0171 0.0263,0.0189 0.0144,0.0103 0.0146,0.0105 0.0127,0.009 0.015,0.0108 0.0217,0.0156 0.0266,0.0191 0.0212,0.0152 0.0146,0.0105 0.0148,0.0106 0.0318,0.0229 0.0195,0.014 0.0132,0.01 0.0219,0.0157 0.0206,0.0148 0.0122,0.009 0.0212,0.0152 0.0253,0.0182 0.011,0.008 0.0149,0.0107 0.0113,0.008 0.0288,0.0206 0.0216,0.0155 0.016,0.0115 0.0162,0.0117 0.0186,0.0133 0.0147,0.0105 0.008,0.006 0.0129,0.009 0.024,0.0172 0.0156,0.0112 0.0158,0.0113 0.0207,0.0148 0.0219,0.0157 0.0125,0.009 0.0169,0.0121 0.0186,0.0134 0.0116,0.008 0.0252,0.0181 0.0227,0.0163 0.0154,0.0111 0.0157,0.0113 0.0127,0.009 0.0194,0.0139 0.0164,0.0118 0.0201,0.0144 0.0102,0.007 0.0103,0.007 0.0139,0.01 0.0194,0.0139 0.0135,0.01 0.0113,0.008 0.0235,0.0169 0.0122,0.009 0.0229,0.0165 0.0117,0.008 0.009,0.006 0.0169,0.0121 0.0169,0.0121 0.0119,0.009 0.0107,0.008 0.0126,0.009 0.0164,0.0118 0.0185,0.0133 0.0141,0.0101 0.0115,0.008 0.0106,0.008 0.0216,0.0155 0.013,0.009 0.0121,0.009 0.0113,0.008 0.0124,0.009 0.0115,0.008 0.0181,0.013 0.009,0.006 0.0175,0.0126 0.0202,0.0145 0.0108,0.008 0.0108,0.008 0.009,0.006 0.009,0.006 0.0156,0.0112 0.0136,0.01 0.0139,0.01 0.0141,0.0101 0.007,0.005 0.01,0.007 0.0147,0.0105 0.01,0.007 0.0101,0.007 0.018,0.0129 0.0131,0.009 0.005,0.004 0.005,0.004 0.008,0.006 0.008,0.006 0.016,0.0115 0.007,0.005 0.007,0.005 0.016,0.0115 0.0119,0.009 0.0121,0.009 0.009,0.007 0.009,0.007 0.0159,0.0114 0.008,0.006 0.008,0.006 0.01,0.007 0.009,0.006 0.0118,0.009 0.006,0.004 0.009,0.007 0.0124,0.009 0.009,0.007 0.01,0.007 0.01,0.007 0.008,0.006 0.008,0.006 0.012,0.009 0.0123,0.009 0.007,0.005 0.0109,0.008 0.006,0.004 0.009,0.007 0.008,0.005 0.0136,0.01 0.008,0.006 0.008,0.006 0.0102,0.007 0.006,0.004 0.006,0.005 0.0128,0.009 0.008,0.005 0.009,0.007 0.009,0.007 0.005,0.004 0.0137,0.01 0.0112,0.008 0.006,0.004 0.009,0.006 0.009,0.006 0.0121,0.009 0.009,0.007 0.006,0.005 0.006,0.005 0.013,0.009 0.008,0.006 0.005,0.004 0.0103,0.007 0.007,0.005 0.009,0.006 0.005,0.004 0.013,0.009 0.006,0.004 0.006,0.004 0.0118,0.009 0.008,0.005 0.005,0.004 0.005,0.004 0.008,0.006 0.008,0.006 0.011,0.008 0.006,0.004 0.006,0.004 0.009,0.006 0.006,0.004 0.006,0.004 0.006,0.004 0.008,0.006 0.008,0.006 0.006,0.005 0.007,0.005 0.01,0.007 0.005,0.004 0.005,0.004 0.005,0.004 0.005,0.004 0.005,0.004 0.006,0.004 0.004,0.003 0.004,0.003 0.008,0.005 0.008,0.006 0.004,0.003 0.004,0.003 0.008,0.006 0.008,0.006 0.004,0.003 0.004,0.003 0.004,0.003 0.008,0.006 0.004,0.003 0.004,0.003 0.009,0.006 0.009,0.007 0.005,0.003 0.005,0.003 0.01,0.007 0.005,0.004 0.005,0.004 0.005,0.004 0.005,0.004 0.005,0.004 0.008,0.006 0.004,0.003 0.004,0.003 0.006,0.004 0.006,0.004 0.003,0.002 0.003,0.002 0.006,0.004 0.006,0.004 0.006,0.004 0.007,0.005 0.003,0.002 0.003,0.002 0.007,0.005 0.004,0.003 0.004,0.003 0.007,0.005 0.004,0.003 0.004,0.003 0.004,0.003 0.004,0.003 0.008,0.006 0.004,0.003 0.004,0.003 0.002,10e-4 0.002,0.002 0.004,0.003 0.004,0.003 0.004,0.003 0.002,0.002 0.002,0.002 0.005,0.003 0.005,0.003 0.005,0.003 0.005,0.003 0.005,0.003 0.002,0.002 0.005,0.004 0.002,0.002 0.005,0.004 0.005,0.004 0.004,0.003 0.004,0.003 0.004,0.003 0.004,0.003 0.004,0.003 0.004,0.003 0.004,0.003 0.004,0.003 0.002,0.002 0.002,0.002 0.004,0.003 0.004,0.003 0.005,0.003 0.002,0.002 0.002,0.002 0.005,0.003 0.002,0.002 0.002,0.002 0.005,0.003 0.003,0.002 0.003,0.002 0.003,0.002 0.003,0.002 0.003,0.002 0.003,0.002 0.003,0.002 0.003,0.002 0.003,0.002 0.003,0.002 0.003,0.002 0.003,0.002 0.003,0.002 0.005,0.004 0.003,0.002 0.002,0.001 0.003,0.002 0.003,0.002 0.003,0.002 0.003,0.002 0.005,0.003 0.003,0.002 0.002,0.001 0.003,0.002 0.002,0.001 0.004,0.003 0.002,0.001 0.004,0.003 0.002,10e-4 0.004,0.003 0.002,0.001 0.004,0.003 0.002,0.002 0.003,0.002 0.002,0.002 0.005,0.003 0.005,0.003 0.002,0.001 0.003,0.002 0.007,0.005" /></g></g><g
       id="g352"><path
         id="path354"
         style="fill:none;stroke:#000000;stroke-width:0.80000001;stroke-linecap:square;stroke-linejoin:miter;stroke-miterlimit:10;stroke-dasharray:none;stroke-opacity:1"
         d="m 34.172597,30.309095 0,152.330905" /><path
         id="path356"
         style="fill:none;stroke:#000000;stroke-width:0.80000001;stroke-linecap:square;stroke-linejoin:miter;stroke-miterlimit:10;stroke-dasharray:none;stroke-opacity:1"
         d="m 230.88,30.309095 0,152.330905" /><path
         id="path358"
         style="fill:none;stroke:#000000;stroke-width:0.80000001;stroke-linecap:square;stroke-linejoin:miter;stroke-miterlimit:10;stroke-dasharray:none;stroke-opacity:1"
         d="m 34.172597,30.309095 196.707403,0" /><path
         id="path360"
         style="fill:none;stroke:#000000;stroke-width:0.80000001;stroke-linecap:square;stroke-linejoin:miter;stroke-miterlimit:10;stroke-dasharray:none;stroke-opacity:1"
         d="m 34.172597,182.64 196.707403,0" /><path
         id="path362"
         style="fill:#ffffff;fill-opacity:0.8;fill-rule:nonzero;stroke:#cccccc;stroke-width:1;stroke-linecap:butt;stroke-linejoin:miter;stroke-miterlimit:10;stroke-dasharray:none;stroke-opacity:0.8"
         d="m 39.072597,157.52797 103.962613,0 c 0.93333,0 1.4,0.46667 1.4,1.4 l 0,18.81203 c 0,0.93333 -0.46667,1.4 -1.4,1.4 l -103.962613,0 c -0.933333,0 -1.4,-0.46667 -1.4,-1.4 l 0,-18.81203 c 0,-0.93333 0.466667,-1.4 1.4,-1.4 z" /><path
         id="path364"
         style="fill:none;stroke:#1f77b4;stroke-width:0.75;stroke-linecap:square;stroke-linejoin:round;stroke-miterlimit:10;stroke-dasharray:none;stroke-opacity:1"
         d="m 40.472597,173.89 14,0" /><text
         id="text366"
         style="font-style:italic;font-variant:normal;font-weight:normal;font-size:6.97384787px;font-family:CMMI7;-inkscape-font-specification:CMMI7;writing-mode:lr-tb;fill:#000000;fill-opacity:1;fill-rule:nonzero;stroke:none"
         transform="matrix(1,0,0,-1,60.072597,172.43626)"><tspan
           id="tspan368"
           y="0"
           x="0">`</tspan></text>
<text
         id="text370"
         style="font-variant:normal;font-weight:normal;font-size:6.97384787px;font-family:CMR7;-inkscape-font-specification:CMR7;writing-mode:lr-tb;fill:#000000;fill-opacity:1;fill-rule:nonzero;stroke:none"
         transform="matrix(1,0,0,-1,65.675078,172.43626)"><tspan
           id="tspan372"
           y="0"
           x="0 8.3768167 15.029328">=1g</tspan></text>
<text
         id="text374"
         style="font-variant:normal;font-weight:normal;font-size:4.9813199px;font-family:CMR5;-inkscape-font-specification:CMR5;writing-mode:lr-tb;fill:#000000;fill-opacity:1;fill-rule:nonzero;stroke:none"
         transform="matrix(1,0,0,-1,84.685651,171.44)"><tspan
           id="tspan376"
           y="0"
           x="0 3.3872976">30</tspan></text>
<text
         id="text378"
         style="font-variant:normal;font-weight:normal;font-size:6.97384787px;font-family:CMR7;-inkscape-font-specification:CMR7;writing-mode:lr-tb;fill:#000000;fill-opacity:1;fill-rule:nonzero;stroke:none"
         transform="matrix(1,0,0,-1,94.648413,172.43626)"><tspan
           id="tspan380"
           y="0"
           x="0 6.5414696 10.724056 15.11758">mode</tspan></text>
<path
         id="path382"
         style="fill:none;stroke:#d62728;stroke-width:0.75;stroke-linecap:square;stroke-linejoin:round;stroke-miterlimit:10;stroke-dasharray:none;stroke-opacity:1"
         d="m 40.472597,164.13399 14,0" /><text
         id="text384"
         style="font-variant:normal;font-weight:normal;font-size:6.97384787px;font-family:CMR7;-inkscape-font-specification:CMR7;writing-mode:lr-tb;fill:#000000;fill-opacity:1;fill-rule:nonzero;stroke:none"
         transform="matrix(1,0,0,-1,60.072597,161.68399)"><tspan
           id="tspan386"
           y="0"
           x="0 2.8732255 7.2667499 9.5193024 12.629639 14.882192 18.850311 23.787256 28.18078 32.574303 34.826859 37.295601 41.263718 44.374054 53.599915 56.710251 60.678371 63.788708 67.756828 70.867165 73.11972 77.087837">Initialuniformrotation</tspan></text>
</g></g></svg>